<?xml version="1.0" encoding="utf-8"?>
<!-- Generator: Adobe Illustrator 16.0.0, SVG Export Plug-In . SVG Version: 6.00 Build 0)  -->
<!DOCTYPE svg PUBLIC "-//W3C//DTD SVG 1.1//EN" "http://www.w3.org/Graphics/SVG/1.1/DTD/svg11.dtd">
<svg version="1.1"
	 id="svg2" xmlns:rdf="http://www.w3.org/1999/02/22-rdf-syntax-ns#" xmlns:svg="http://www.w3.org/2000/svg" xmlns:cc="http://creativecommons.org/ns#" xmlns:dc="http://purl.org/dc/elements/1.1/" xmlns:inkscape="http://www.inkscape.org/namespaces/inkscape"
	 xmlns="http://www.w3.org/2000/svg" xmlns:xlink="http://www.w3.org/1999/xlink" x="0px" y="0px" width="125px" height="125px"
	 viewBox="0 0 125 125" enable-background="new 0 0 125 125" xml:space="preserve">
<g id="g10" transform="matrix(1.25,0,0,-1.25,0,125)">
	<g id="g12_1_">
		<g>
			<g>
				<path id="SVGID_2_" fill="#FFFFFF" d="M12,100c-6.627,0-12-5.372-12-12l0,0V12C0,5.373,5.373,0,12,0l0,0h76
					c6.627,0,12,5.373,12,12l0,0v76c0,6.628-5.373,12-12,12l0,0H12z"/>
			</g>
		</g>
	</g>
</g>
<g>
	<path d="M85.475,70.99c0,3.654,0,7.307,0,10.961c0,0.109,0.001,0.219,0,0.328c-0.006,0.795-0.221,1.018-1.004,1.02
		c-1.772,0.002-3.545,0.01-5.316-0.002c-2.145-0.015-4.287-0.047-6.432-0.072c-0.152-0.002-0.307-0.004-0.457-0.027
		c-0.244-0.039-0.393-0.188-0.412-0.438c-0.013-0.175-0.014-0.35-0.014-0.524c-0.029-6.476-0.061-12.951-0.084-19.427
		c-0.004-1.057-0.127-2.092-0.41-3.109c-0.957-3.437-3.727-6.152-8.036-6.593c-1.929-0.197-3.759,0.084-5.448,1.033
		c-2.846,1.601-4.375,4.075-4.644,7.315c-0.133,1.607,0.076,3.184,0.641,4.705c1.252,3.373,4.417,5.604,8.015,5.654
		c1.693,0.024,3.361-0.132,4.998-0.572c0.105-0.027,0.21-0.064,0.317-0.084c0.732-0.143,0.984,0.035,1.002,0.77
		c0.032,1.334,0.055,2.668,0.054,4.003c-0.002,2.078-0.025,4.157-0.041,6.235c-0.005,0.755-0.109,0.984-0.838,1.207
		c-0.938,0.286-1.893,0.578-2.86,0.688c-3.52,0.402-7.034,0.416-10.46-0.656c-7.087-2.218-11.644-6.917-13.684-14.057
		c-0.685-2.398-0.847-4.85-0.83-7.333c0.016-2.483,0.435-4.881,1.33-7.179c2.788-7.16,7.958-11.673,15.37-13.604
		c3.125-0.814,6.309-0.838,9.506-0.457c2.778,0.33,5.465,0.99,7.994,2.19c6.078,2.886,9.811,7.642,11.244,14.214
		c0.301,1.375,0.414,2.763,0.412,4.166c-0.002,3.216,0,6.432,0,9.648C85.416,70.99,85.445,70.99,85.475,70.99z"/>
	<g>
		<g>
			<path fill="#A4C70F" d="M27.475,65.611c-0.182-2.197-0.224-4.395-0.011-6.591c0.097-1.002-0.059-1.179-1.095-1.311
				c-3.453-0.441-6.905-0.889-10.358-1.334c-0.89-0.115-1.779-0.234-2.671-0.34c-0.252-0.03-0.51-0.032-0.765-0.026
				c-0.595,0.012-0.896,0.294-0.936,0.878c-0.051,0.75-0.051,1.504-0.142,2.249c-0.255,2.087-0.122,4.176-0.058,6.264
				c0.023,0.773,0.115,1.545,0.197,2.314c0.031,0.287,0.115,0.568,0.189,0.848c0.065,0.248,0.468,0.418,0.907,0.365
				c0.792-0.095,1.582-0.207,2.374-0.311c2.088-0.271,4.176-0.543,6.265-0.811c1.737-0.222,3.475-0.436,5.212-0.658
				c0.163-0.021,0.325-0.072,0.478-0.133c0.271-0.105,0.427-0.295,0.417-0.596C27.467,66.15,27.475,65.881,27.475,65.611z"/>
		</g>
		<g>
			<path fill="#E6001E" d="M30.419,48.191c0.942-1.994,2.004-3.918,3.287-5.714c0.585-0.82,0.538-1.05-0.293-1.683
				c-2.77-2.108-5.536-4.222-8.303-6.334c-0.713-0.544-1.424-1.092-2.144-1.63c-0.204-0.152-0.426-0.282-0.649-0.404
				c-0.522-0.287-0.924-0.194-1.25,0.292c-0.418,0.624-0.796,1.278-1.247,1.877c-1.265,1.68-2.194,3.556-3.183,5.396
				c-0.366,0.681-0.673,1.396-0.987,2.104c-0.116,0.263-0.184,0.549-0.26,0.829c-0.067,0.248,0.197,0.596,0.603,0.77
				c0.733,0.314,1.474,0.611,2.21,0.917c1.944,0.809,3.889,1.618,5.831,2.431c1.615,0.676,3.227,1.36,4.843,2.036
				c0.151,0.063,0.318,0.099,0.48,0.124c0.288,0.044,0.517-0.042,0.659-0.309C30.143,48.654,30.285,48.424,30.419,48.191z"/>
		</g>
		<g>
			<path fill="#009BEB" d="M33.59,82.406c-1.256-1.812-2.391-3.695-3.305-5.703c-0.417-0.917-0.64-0.992-1.604-0.588
				c-3.211,1.345-6.425,2.683-9.637,4.023c-0.829,0.346-1.658,0.688-2.483,1.041c-0.234,0.101-0.458,0.229-0.675,0.359
				c-0.509,0.309-0.629,0.704-0.372,1.229c0.331,0.675,0.708,1.327,1.002,2.019c0.823,1.936,1.983,3.678,3.082,5.453
				c0.407,0.658,0.872,1.281,1.328,1.906c0.17,0.232,0.384,0.435,0.588,0.641c0.181,0.182,0.614,0.127,0.968-0.139
				c0.639-0.478,1.267-0.971,1.9-1.455c1.672-1.279,3.345-2.559,5.02-3.834c1.393-1.061,2.792-2.115,4.184-3.176
				c0.131-0.1,0.246-0.227,0.349-0.354c0.182-0.228,0.222-0.468,0.062-0.726C33.853,82.876,33.725,82.639,33.59,82.406z"/>
		</g>
	</g>
	<g>
		<g>
			<path fill="#F9A81D" d="M97.988,65.469c0.176-2.197,0.217-4.395,0.01-6.591c-0.094-1.002,0.058-1.179,1.064-1.312
				c3.354-0.44,6.707-0.889,10.061-1.334c0.865-0.115,1.729-0.234,2.595-0.34c0.245-0.03,0.495-0.031,0.743-0.026
				c0.578,0.012,0.871,0.294,0.909,0.878c0.049,0.75,0.049,1.504,0.137,2.249c0.248,2.087,0.118,4.176,0.057,6.264
				c-0.022,0.773-0.111,1.545-0.191,2.315c-0.029,0.286-0.111,0.567-0.184,0.847c-0.063,0.249-0.454,0.418-0.881,0.365
				c-0.77-0.094-1.536-0.207-2.306-0.311c-2.027-0.271-4.057-0.543-6.084-0.811c-1.688-0.222-3.376-0.436-5.062-0.658
				c-0.158-0.021-0.316-0.072-0.465-0.133c-0.264-0.105-0.414-0.295-0.404-0.596C97.995,66.008,97.988,65.738,97.988,65.469z"/>
		</g>
		<g>
			<path fill="#F5AA00" d="M97.53,65.455c0.181-2.197,0.224-4.395,0.011-6.591c-0.098-1.002,0.059-1.179,1.095-1.311
				c3.452-0.441,6.903-0.889,10.354-1.334c0.891-0.115,1.779-0.234,2.671-0.34c0.253-0.03,0.51-0.031,0.765-0.026
				c0.595,0.013,0.896,0.294,0.936,0.878c0.051,0.75,0.051,1.505,0.142,2.249c0.255,2.087,0.122,4.176,0.058,6.264
				c-0.023,0.773-0.114,1.545-0.197,2.315c-0.029,0.286-0.114,0.567-0.188,0.847c-0.065,0.249-0.468,0.418-0.907,0.365
				c-0.791-0.094-1.581-0.207-2.372-0.311c-2.088-0.271-4.175-0.543-6.263-0.811c-1.736-0.222-3.475-0.436-5.211-0.658
				c-0.162-0.021-0.324-0.072-0.478-0.133c-0.271-0.105-0.427-0.294-0.417-0.596C97.537,65.994,97.53,65.725,97.53,65.455z"/>
		</g>
		<g>
			<path fill="#009582" d="M94.586,48.035c-0.941-1.994-2.003-3.918-3.285-5.714c-0.585-0.819-0.538-1.05,0.293-1.683
				c2.77-2.108,5.534-4.223,8.301-6.335c0.713-0.544,1.424-1.092,2.143-1.629c0.204-0.152,0.426-0.282,0.649-0.405
				c0.521-0.287,0.924-0.194,1.249,0.292c0.419,0.624,0.797,1.278,1.247,1.877c1.265,1.681,2.192,3.556,3.182,5.396
				c0.366,0.681,0.673,1.396,0.986,2.104c0.116,0.263,0.185,0.549,0.261,0.829c0.066,0.248-0.197,0.595-0.604,0.77
				c-0.732,0.314-1.474,0.611-2.21,0.918c-1.943,0.809-3.888,1.617-5.829,2.43c-1.615,0.676-3.226,1.36-4.842,2.036
				c-0.15,0.063-0.316,0.1-0.48,0.125c-0.287,0.044-0.516-0.042-0.658-0.309C94.862,48.498,94.721,48.268,94.586,48.035z"/>
		</g>
		<g>
			<path fill="#E62C8B" d="M91.416,82.25c1.256-1.812,2.391-3.695,3.305-5.703c0.416-0.916,0.641-0.992,1.604-0.588
				c3.21,1.346,6.422,2.683,9.635,4.023c0.828,0.346,1.658,0.688,2.482,1.041c0.232,0.101,0.457,0.229,0.674,0.36
				c0.51,0.308,0.63,0.703,0.373,1.229c-0.332,0.674-0.709,1.327-1.002,2.018c-0.823,1.936-1.982,3.678-3.081,5.453
				c-0.407,0.658-0.872,1.281-1.328,1.907c-0.169,0.232-0.383,0.435-0.587,0.64c-0.182,0.182-0.614,0.127-0.969-0.138
				c-0.639-0.478-1.266-0.971-1.898-1.456c-1.672-1.278-3.344-2.559-5.02-3.834c-1.393-1.061-2.79-2.115-4.182-3.176
				c-0.131-0.1-0.246-0.227-0.349-0.354c-0.183-0.228-0.223-0.468-0.062-0.725C91.153,82.721,91.281,82.482,91.416,82.25z"/>
		</g>
	</g>
</g>
</svg>
