<?xml version="1.0" encoding="utf-8"?>
<!-- Generator: Adobe Illustrator 16.0.0, SVG Export Plug-In . SVG Version: 6.00 Build 0)  -->
<!DOCTYPE svg PUBLIC "-//W3C//DTD SVG 1.1//EN" "http://www.w3.org/Graphics/SVG/1.1/DTD/svg11.dtd">
<svg version="1.1"
	 id="svg2" xmlns:dc="http://purl.org/dc/elements/1.1/" xmlns:inkscape="http://www.inkscape.org/namespaces/inkscape" xmlns:cc="http://creativecommons.org/ns#" xmlns:svg="http://www.w3.org/2000/svg" xmlns:rdf="http://www.w3.org/1999/02/22-rdf-syntax-ns#"
	 xmlns="http://www.w3.org/2000/svg" xmlns:xlink="http://www.w3.org/1999/xlink" x="0px" y="0px" width="125px" height="125px"
	 viewBox="0 0 125 125" enable-background="new 0 0 125 125" xml:space="preserve">
<g>
	<defs>
		<path id="SVGID_1_" d="M15,0C6.716,0,0,6.715,0,15l0,0v95c0,8.283,6.716,15,15,15l0,0h95c8.283,0,15-6.717,15-15l0,0V15
			c0-8.285-6.717-15-15-15l0,0H15z"/>
	</defs>
	<use xlink:href="#SVGID_1_"  overflow="visible" fill="#00C90E"/>
	<clipPath id="SVGID_2_">
		<use xlink:href="#SVGID_1_"  overflow="visible"/>
	</clipPath>
	<path id="path20" inkscape:connector-curvature="0" clip-path="url(#SVGID_2_)" fill="#00C90E" d="M125,125H0V0h125V125z"/>
</g>
<g>
	<defs>
		<path id="SVGID_3_" d="M18.561,5.113c-7.61,0-13.78,6.168-13.78,13.78l0,0v87.273c0,7.609,6.17,13.779,13.78,13.779l0,0h87.273
			c7.609,0,13.779-6.17,13.779-13.779l0,0V18.893c0-7.611-6.17-13.78-13.779-13.78l0,0H18.561z"/>
	</defs>
	<use xlink:href="#SVGID_3_"  overflow="visible" fill="#FFFFFF"/>
	<clipPath id="SVGID_4_">
		<use xlink:href="#SVGID_3_"  overflow="visible"/>
	</clipPath>
	<path id="path20_1_" inkscape:connector-curvature="0" clip-path="url(#SVGID_4_)" fill="#FFFFFF" d="M119.613,119.945H4.781V5.113
		h114.832V119.945z"/>
</g>
<path fill-rule="evenodd" clip-rule="evenodd" fill="#FFFFFF" d="M63.898,80.118c-1.199,0-2.24,0-3.408,0c0,0.25,0,0.535,0,0.822
	c0,2.611-0.019,5.223,0.017,7.83c0.006,0.445,0.234,0.891,0.372,1.33c0.159,0.506,0.423,1,0.479,1.518
	c0.1,0.918-0.353,1.58-1.261,1.648c-1.362,0.102-2.75,0.133-4.103-0.023c-1.282-0.148-1.771-1.168-1.176-2.32
	c0.33-0.639,0.858-1.232,1.432-1.67c0.466-0.355,0.584-0.691,0.516-1.199c-0.527-3.969-1.043-7.941-1.581-11.908
	c-0.502-3.705-0.554-7.389,0.401-11.07c-0.896,1.668-1.793,3.336-2.689,5.004c-0.156,0.29-0.307,0.582-0.464,0.873
	c-0.51,0.941-1.011,1.752-0.493,3.01c0.53,1.287-0.041,2.617-1.186,3.508c-1.264,0.982-2.682,1.141-4.134,0.439
	c-1.301-0.629-2.026-1.74-2.026-3.154c-0.001-1.449,0.733-2.533,2.065-3.227c0.434-0.225,0.872-0.646,1.071-1.086
	c2.263-4.965,4.765-9.794,8.043-14.181c0.395-0.527,0.263-0.794-0.2-1.156c-6.011-4.687-7.113-13.236-2.494-19.225
	c3.821-4.954,11.607-5.81,16.405-1.804c6.596,5.506,6.16,16.047-0.877,21.212c-0.12,0.087-0.236,0.179-0.392,0.298
	c1.169,1.753,2.449,3.424,3.459,5.246c1.751,3.164,3.324,6.425,5.011,9.628c0.214,0.404,0.588,0.817,0.993,1.018
	c1.763,0.875,2.597,2.881,1.84,4.611c-0.817,1.867-3.051,2.729-4.978,1.916c-1.839-0.771-2.722-2.787-1.948-4.589
	c0.228-0.528,0.214-0.931-0.055-1.423c-1.165-2.125-2.298-4.27-3.443-6.404c-0.068-0.126-0.162-0.238-0.244-0.355
	c0.219,1.671,0.557,3.314,0.613,4.969c0.063,1.844-0.041,3.707-0.232,5.543c-0.334,3.211-0.788,6.408-1.195,9.611
	c-0.119,0.947-0.214,1.9-0.385,2.84c-0.091,0.49,0.092,0.695,0.438,1.02c0.615,0.574,1.202,1.246,1.579,1.988
	c0.441,0.865,0.06,1.613-0.857,1.912c-1.545,0.506-3.135,0.518-4.695,0.102c-1.086-0.287-1.52-1.385-0.827-2.568
	c0.642-1.1,0.605-2.209,0.607-3.361c0.003-2.039,0-4.08,0-6.121C63.898,80.843,63.898,80.519,63.898,80.118z M62.253,52.357
	c1.499,0.078,2.786-0.507,3.932-1.435c0.592-0.478,0.706-1.346,0.259-1.841c-0.519-0.575-1.2-0.631-1.775-0.174
	c-1.65,1.313-3.25,1.286-4.903,0.024c-0.621-0.473-1.475-0.374-1.828,0.205c-0.382,0.625-0.332,1.253,0.266,1.76
	C59.365,51.881,60.689,52.424,62.253,52.357z M59.5,41.526c-0.009-1.234-0.875-2.078-2.108-2.054
	c-1.152,0.021-2.021,0.909-2.027,2.071c-0.006,1.192,0.917,2.137,2.087,2.138C58.616,43.682,59.508,42.742,59.5,41.526z
	 M66.931,43.515c1.236,0.005,2.089-0.828,2.095-2.049c0.006-1.208-0.862-2.077-2.078-2.078c-1.176-0.001-2.022,0.83-2.05,2.008
	C64.869,42.612,65.729,43.508,66.931,43.515z"/>
<path fill="#FFFFFF" d="M78.513,41.314c-1.687-9.079-8.451-13.925-15.01-14.196c-9.58-0.396-15.114,4.779-17.579,13.74
	c-0.33-0.139-0.632-0.265-0.933-0.393c-2.593-1.099-5.277-1.321-8.01-0.715c-6.014,1.333-10.012,6.65-10.341,13.217
	c-0.186,3.696,0.708,7.124,2.768,10.235c0.149,0.225,0.142,0.693,0.009,0.945c-0.988,1.885-2.009,3.752-3.061,5.602
	c-0.228,0.4-0.572,0.766-0.938,1.053c-2.417,1.904-3.271,4.426-2.676,7.354c0.591,2.906,2.637,4.527,5.397,5.322
	c0.532,0.152,1.091,0.215,1.696,0.33c-0.209,0.662-0.416,1.25-0.581,1.848c-1.079,3.934,0.517,7.031,4.405,8.24
	c1.438,0.447,2.987,0.684,4.494,0.729c3.448,0.107,6.901,0.025,10.351,0.051c0.334,0.004,0.834,0.145,0.972,0.383
	c0.661,1.152,1.662,1.838,2.887,2.129c1.361,0.324,2.756,0.635,4.146,0.68c3.268,0.105,6.541,0.053,9.812,0.053
	c2.076,0,4.156-0.131,6.083-0.943c0.873-0.367,1.701-0.996,2.346-1.695c0.388-0.42,0.672-0.633,1.229-0.631
	c3.511,0.018,7.022,0.061,10.53-0.016c1.364-0.029,2.762-0.207,4.074-0.564c2.428-0.664,4.404-1.971,4.999-4.633
	c0.34-1.523,0.144-3.039-0.421-4.5c-0.122-0.316-0.204-0.646-0.309-0.986c0.603-0.105,1.109-0.158,1.597-0.287
	c2.751-0.723,4.775-2.293,5.454-5.148c0.698-2.934-0.158-5.438-2.484-7.41c-0.263-0.225-0.498-0.518-0.659-0.823
	c-1.153-2.17-2.27-4.356-3.429-6.521c-0.251-0.466-0.21-0.774,0.102-1.204c2.344-3.236,3.169-6.851,2.617-10.8
	c-1.101-7.866-8.477-13.082-16.206-11.419C80.714,40.579,79.621,40.984,78.513,41.314z"/>
<path fill-rule="evenodd" clip-rule="evenodd" fill="#00C90E" d="M78.513,41.314c1.108-0.33,2.201-0.735,3.33-0.978
	c7.729-1.663,15.105,3.553,16.206,11.419c0.552,3.949-0.273,7.563-2.617,10.8c-0.312,0.43-0.353,0.738-0.102,1.204
	c1.159,2.165,2.275,4.352,3.429,6.521c0.161,0.306,0.396,0.599,0.659,0.823c2.326,1.973,3.183,4.477,2.484,7.41
	c-0.679,2.855-2.703,4.426-5.454,5.148c-0.487,0.129-0.994,0.182-1.597,0.287c0.104,0.34,0.187,0.67,0.309,0.986
	c0.564,1.461,0.761,2.977,0.421,4.5c-0.595,2.662-2.571,3.969-4.999,4.633c-1.312,0.357-2.71,0.535-4.074,0.564
	c-3.508,0.076-7.02,0.033-10.53,0.016c-0.557-0.002-0.841,0.211-1.229,0.631c-0.645,0.699-1.473,1.328-2.346,1.695
	c-1.927,0.812-4.007,0.943-6.083,0.943c-3.271,0-6.544,0.053-9.812-0.053c-1.389-0.045-2.785-0.355-4.146-0.68
	c-1.225-0.291-2.226-0.977-2.887-2.129c-0.138-0.238-0.638-0.379-0.972-0.383c-3.45-0.025-6.903,0.057-10.351-0.051
	c-1.507-0.045-3.056-0.281-4.494-0.729c-3.888-1.209-5.484-4.307-4.405-8.24c0.165-0.598,0.372-1.186,0.581-1.848
	c-0.605-0.115-1.165-0.178-1.696-0.33c-2.76-0.795-4.806-2.416-5.397-5.322c-0.595-2.928,0.258-5.449,2.676-7.354
	c0.366-0.287,0.71-0.652,0.938-1.053c1.051-1.85,2.072-3.717,3.061-5.602c0.132-0.252,0.14-0.721-0.009-0.945
	c-2.059-3.111-2.953-6.54-2.768-10.235c0.33-6.567,4.327-11.883,10.341-13.217c2.733-0.606,5.417-0.384,8.01,0.715
	c0.301,0.128,0.604,0.254,0.933,0.393c2.465-8.961,7.999-14.137,17.579-13.74C70.062,27.389,76.826,32.235,78.513,41.314z
	 M63.898,80.118c0,0.4,0,0.725,0,1.049c0,2.041,0.003,4.082,0,6.121c-0.002,1.152,0.034,2.262-0.607,3.361
	c-0.693,1.184-0.259,2.281,0.827,2.568c1.561,0.416,3.15,0.404,4.695-0.102c0.917-0.299,1.299-1.047,0.857-1.912
	c-0.377-0.742-0.964-1.414-1.579-1.988c-0.347-0.324-0.529-0.529-0.438-1.02c0.171-0.939,0.266-1.893,0.385-2.84
	c0.407-3.203,0.861-6.4,1.195-9.611c0.191-1.836,0.296-3.699,0.232-5.543c-0.057-1.654-0.395-3.298-0.613-4.969
	c0.082,0.117,0.176,0.229,0.244,0.355c1.146,2.135,2.278,4.279,3.443,6.404c0.269,0.492,0.282,0.895,0.055,1.423
	c-0.773,1.802,0.109,3.817,1.948,4.589c1.927,0.812,4.16-0.049,4.978-1.916c0.757-1.73-0.077-3.736-1.84-4.611
	c-0.405-0.2-0.779-0.613-0.993-1.018c-1.687-3.203-3.26-6.465-5.011-9.628c-1.01-1.821-2.29-3.492-3.459-5.246
	c0.155-0.119,0.271-0.211,0.392-0.298c7.037-5.165,7.473-15.706,0.877-21.212c-4.798-4.006-12.584-3.149-16.405,1.804
	c-4.619,5.989-3.517,14.539,2.494,19.225c0.463,0.361,0.595,0.628,0.2,1.156c-3.279,4.387-5.78,9.216-8.043,14.181
	c-0.2,0.439-0.638,0.861-1.071,1.086c-1.333,0.693-2.067,1.777-2.065,3.227c0,1.414,0.725,2.525,2.026,3.154
	c1.452,0.701,2.87,0.543,4.134-0.439c1.145-0.891,1.715-2.221,1.186-3.508c-0.518-1.258-0.017-2.068,0.493-3.01
	c0.157-0.291,0.309-0.583,0.464-0.873c0.896-1.668,1.793-3.336,2.689-5.004c-0.955,3.682-0.903,7.365-0.401,11.07
	c0.538,3.967,1.053,7.939,1.581,11.908c0.068,0.508-0.05,0.844-0.516,1.199c-0.574,0.438-1.102,1.031-1.432,1.67
	c-0.595,1.152-0.106,2.172,1.176,2.32c1.353,0.156,2.741,0.125,4.103,0.023c0.908-0.068,1.361-0.73,1.261-1.648
	c-0.057-0.518-0.32-1.012-0.479-1.518c-0.138-0.439-0.366-0.885-0.372-1.33c-0.036-2.607-0.017-5.219-0.017-7.83
	c0-0.287,0-0.572,0-0.822C61.659,80.118,62.699,80.118,63.898,80.118z M76.775,67.981c0.277,0.084,0.416,0.127,0.557,0.172
	c0.17,0.055,0.344,0.102,0.51,0.17c2.388,0.957,4.216,2.496,4.657,5.141c0.457,2.75-0.61,4.906-2.957,6.451
	c-0.258,0.17-0.436,0.711-0.391,1.041c0.207,1.445,0.47,2.889,0.791,4.314c0.192,0.855,0.363,1.598-0.615,2.113
	c-0.283,0.148-0.474,0.541-0.622,0.857c-0.408,0.871-0.088,1.65,0.846,1.77c1.025,0.133,2.082,0.104,3.118,0.027
	c0.644-0.047,1.033-0.545,0.908-1.211c-0.113-0.6-0.523-1.168-0.544-1.76c-0.07-2.029-0.026-4.062-0.026-6.086
	c1.039,0,1.979,0,3.104,0c-0.356,2.395,0.441,4.785-0.518,7.115c-0.486,1.186-0.088,1.863,1.191,1.996
	c0.88,0.094,1.794,0.062,2.671-0.062c0.962-0.133,1.337-0.957,0.886-1.814c-0.204-0.387-0.482-0.797-0.838-1.029
	c-0.594-0.391-0.588-0.826-0.489-1.453c0.433-2.742,0.786-5.496,1.197-8.242c0.354-2.357,0.022-4.678-0.358-7.056
	c0.106,0.088,0.168,0.114,0.194,0.163c0.679,1.299,1.345,2.605,2.032,3.898c0.23,0.438,0.308,0.801,0.095,1.32
	c-0.54,1.32,0.145,2.766,1.472,3.34c1.385,0.598,3.044,0.027,3.697-1.271c0.62-1.23,0.216-2.764-1.029-3.428
	c-0.637-0.34-0.995-0.799-1.245-1.424c-0.18-0.443-0.382-0.88-0.606-1.301c-1.665-3.141-3.341-6.279-5.072-9.531
	c0.062-0.044,0.213-0.142,0.354-0.251c3.117-2.41,4.382-5.592,3.876-9.474c-0.882-6.75-7.986-9.854-13.408-6.81
	c-5.823,3.27-6.389,11.653-1.104,15.94c0.775,0.629,0.71,1.033,0.283,1.746C78.504,64.841,77.682,66.368,76.775,67.981z
	 M41.305,80.263c0,0.594,0.039,1.162-0.007,1.723c-0.179,2.178,0.509,4.4-0.467,6.551c-0.337,0.74,0.194,1.434,1.051,1.521
	c0.912,0.094,1.848,0.092,2.76-0.002c1.166-0.117,1.563-0.99,0.96-2.008c-0.208-0.352-0.492-0.701-0.828-0.92
	c-0.497-0.324-0.551-0.709-0.454-1.227c0.29-1.553,0.557-3.111,0.826-4.67c0.113-0.654,0-1.129-0.637-1.588
	c-3.225-2.332-3.67-6.705-0.892-9.367c1.001-0.963,2.33-1.582,3.598-2.417c-0.037-0.071-0.173-0.362-0.333-0.637
	c-0.708-1.216-1.403-2.44-2.147-3.636c-0.294-0.472-0.263-0.757,0.183-1.115c3.77-3.019,4.788-9.418,2.519-13.817
	c-1.504-2.913-3.909-4.609-7.215-4.735c-3.292-0.127-5.92,1.267-7.561,4.128c-2.236,3.897-2.084,7.913,0.017,11.813
	c0.634,1.176,1.659,2.142,2.501,3.199c-1.669,2.961-3.39,6.008-5.102,9.061c-0.506,0.902-0.869,1.912-1.966,2.32
	c-0.18,0.066-0.327,0.26-0.458,0.418c-0.798,0.971-0.801,2.305-0.019,3.311c0.808,1.039,2.362,1.359,3.57,0.736
	c1.137-0.588,1.693-1.799,1.388-3.004c-0.091-0.359-0.327-0.818-0.195-1.078c0.713-1.416,1.521-2.782,2.293-4.162
	c-0.085,1.109-0.305,2.187-0.223,3.242c0.284,3.633,0.662,7.26,1.028,10.889c0.102,1.012,0.492,2.051-0.747,2.709
	c-0.247,0.133-0.381,0.523-0.509,0.82c-0.367,0.857-0.071,1.551,0.827,1.693c0.845,0.135,1.72,0.123,2.581,0.111
	c1.627-0.023,1.741-1.186,1.227-2.404c-0.189-0.447-0.326-0.953-0.336-1.436c-0.025-1.227,0.024-2.459,0.063-3.686
	c0.025-0.791,0.085-1.58,0.128-2.338C39.609,80.263,40.377,80.263,41.305,80.263z"/>
<path fill-rule="evenodd" clip-rule="evenodd" fill="#FFFFFF" d="M76.775,67.981c0.906-1.613,1.729-3.141,2.617-4.628
	c0.427-0.713,0.492-1.117-0.283-1.746c-5.285-4.287-4.72-12.67,1.104-15.94c5.422-3.045,12.526,0.059,13.408,6.81
	c0.506,3.882-0.759,7.064-3.876,9.474c-0.142,0.109-0.292,0.207-0.354,0.251c1.731,3.252,3.407,6.391,5.072,9.531
	c0.225,0.421,0.427,0.857,0.606,1.301c0.25,0.625,0.608,1.084,1.245,1.424c1.245,0.664,1.649,2.197,1.029,3.428
	c-0.653,1.299-2.312,1.869-3.697,1.271c-1.327-0.574-2.012-2.02-1.472-3.34c0.213-0.52,0.136-0.883-0.095-1.32
	c-0.688-1.293-1.354-2.6-2.032-3.898c-0.026-0.049-0.088-0.075-0.194-0.163c0.381,2.378,0.712,4.698,0.358,7.056
	c-0.411,2.746-0.765,5.5-1.197,8.242c-0.099,0.627-0.104,1.062,0.489,1.453c0.355,0.232,0.634,0.643,0.838,1.029
	c0.451,0.857,0.076,1.682-0.886,1.814c-0.877,0.125-1.791,0.156-2.671,0.062c-1.279-0.133-1.678-0.811-1.191-1.996
	c0.959-2.33,0.161-4.721,0.518-7.115c-1.126,0-2.065,0-3.104,0c0,2.023-0.044,4.057,0.026,6.086c0.021,0.592,0.431,1.16,0.544,1.76
	c0.125,0.666-0.265,1.164-0.908,1.211c-1.036,0.076-2.093,0.105-3.118-0.027c-0.934-0.119-1.254-0.898-0.846-1.77
	c0.148-0.316,0.339-0.709,0.622-0.857c0.979-0.516,0.808-1.258,0.615-2.113c-0.321-1.426-0.584-2.869-0.791-4.314
	c-0.045-0.33,0.133-0.871,0.391-1.041c2.347-1.545,3.414-3.701,2.957-6.451c-0.441-2.645-2.27-4.184-4.657-5.141
	c-0.166-0.068-0.34-0.115-0.51-0.17C77.191,68.108,77.053,68.065,76.775,67.981z"/>
<path fill-rule="evenodd" clip-rule="evenodd" fill="#FFFFFF" d="M41.305,80.263c-0.927,0-1.695,0-2.575,0
	c-0.043,0.758-0.104,1.547-0.128,2.338c-0.04,1.227-0.089,2.459-0.063,3.686c0.01,0.482,0.147,0.988,0.336,1.436
	c0.514,1.219,0.4,2.381-1.227,2.404c-0.861,0.012-1.736,0.023-2.581-0.111c-0.898-0.143-1.194-0.836-0.827-1.693
	c0.127-0.297,0.262-0.688,0.509-0.82c1.239-0.658,0.849-1.697,0.747-2.709c-0.366-3.629-0.744-7.256-1.028-10.889
	c-0.082-1.056,0.138-2.133,0.223-3.242c-0.772,1.38-1.58,2.746-2.293,4.162c-0.132,0.26,0.104,0.719,0.195,1.078
	c0.305,1.205-0.251,2.416-1.388,3.004c-1.208,0.623-2.762,0.303-3.57-0.736c-0.782-1.006-0.779-2.34,0.019-3.311
	c0.132-0.158,0.278-0.352,0.458-0.418c1.098-0.408,1.46-1.418,1.966-2.32c1.712-3.053,3.433-6.1,5.102-9.061
	c-0.843-1.057-1.868-2.022-2.501-3.199c-2.102-3.9-2.253-7.916-0.017-11.813c1.641-2.861,4.269-4.255,7.561-4.128
	c3.307,0.126,5.711,1.822,7.215,4.735c2.269,4.398,1.25,10.798-2.519,13.817c-0.446,0.358-0.477,0.643-0.183,1.115
	c0.744,1.195,1.439,2.42,2.147,3.636c0.161,0.274,0.296,0.565,0.333,0.637c-1.269,0.835-2.597,1.454-3.598,2.417
	c-2.778,2.662-2.333,7.035,0.892,9.367c0.637,0.459,0.75,0.934,0.637,1.588c-0.27,1.559-0.537,3.117-0.826,4.67
	c-0.097,0.518-0.042,0.902,0.454,1.227c0.335,0.219,0.62,0.568,0.828,0.92c0.604,1.018,0.206,1.891-0.96,2.008
	c-0.912,0.094-1.849,0.096-2.76,0.002c-0.857-0.088-1.388-0.781-1.051-1.521c0.976-2.15,0.289-4.373,0.467-6.551
	C41.344,81.425,41.305,80.856,41.305,80.263z"/>
<path fill-rule="evenodd" clip-rule="evenodd" fill="#00CA0E" d="M62.253,52.357c-1.564,0.067-2.888-0.476-4.05-1.46
	c-0.598-0.507-0.648-1.135-0.266-1.76c0.353-0.579,1.208-0.678,1.828-0.205c1.653,1.262,3.253,1.289,4.903-0.024
	c0.575-0.457,1.257-0.401,1.775,0.174c0.447,0.495,0.333,1.363-0.259,1.841C65.039,51.85,63.752,52.435,62.253,52.357z"/>
<path fill-rule="evenodd" clip-rule="evenodd" fill="#00CA0E" d="M59.5,41.526c0.008,1.216-0.884,2.155-2.048,2.155
	c-1.17-0.001-2.093-0.946-2.087-2.138c0.006-1.162,0.875-2.05,2.027-2.071C58.625,39.449,59.491,40.292,59.5,41.526z"/>
<path fill-rule="evenodd" clip-rule="evenodd" fill="#00CA0E" d="M66.931,43.515c-1.201-0.006-2.062-0.903-2.033-2.119
	c0.027-1.179,0.874-2.01,2.05-2.008c1.216,0.001,2.084,0.871,2.078,2.078C69.02,42.687,68.167,43.52,66.931,43.515z"/>
</svg>
