<?xml version="1.0" encoding="utf-8"?>
<!-- Generator: Adobe Illustrator 16.0.0, SVG Export Plug-In . SVG Version: 6.00 Build 0)  -->
<!DOCTYPE svg PUBLIC "-//W3C//DTD SVG 1.1//EN" "http://www.w3.org/Graphics/SVG/1.1/DTD/svg11.dtd">
<svg version="1.1"
	 id="svg2" xmlns:svg="http://www.w3.org/2000/svg" xmlns:cc="http://creativecommons.org/ns#" xmlns:dc="http://purl.org/dc/elements/1.1/" xmlns:rdf="http://www.w3.org/1999/02/22-rdf-syntax-ns#" xmlns:inkscape="http://www.inkscape.org/namespaces/inkscape"
	 xmlns="http://www.w3.org/2000/svg" xmlns:xlink="http://www.w3.org/1999/xlink" x="0px" y="0px" width="125px" height="125px"
	 viewBox="0 0 125 125" enable-background="new 0 0 125 125" xml:space="preserve">
<g id="g10" transform="matrix(1.25,0,0,-1.25,0,125)">
	<g id="g12">
		<g>
			<g>
				<path id="SVGID_1_" fill="#5D2510" d="M12,100c-6.627,0-12-5.372-12-12l0,0V12C0,5.373,5.373,0,12,0l0,0h76
					c6.627,0,12,5.373,12,12l0,0v76c0,6.628-5.373,12-12,12l0,0H12z"/>
			</g>
			<g>
				<g>
					<path id="SVGID_2_" fill="#5D2510" d="M12,100c-6.627,0-12-5.372-12-12l0,0V12C0,5.373,5.373,0,12,0l0,0h76
						c6.627,0,12,5.373,12,12l0,0v76c0,6.628-5.373,12-12,12l0,0H12z"/>
				</g>
				<g>
					<g>
						<g>
							<path id="SVGID_3_" fill="#5D2510" d="M12,100c-6.627,0-12-5.372-12-12l0,0V12C0,5.373,5.373,0,12,0l0,0h76
								c6.627,0,12,5.373,12,12l0,0v76c0,6.628-5.373,12-12,12l0,0H12z"/>
						</g>
						<g>
							<defs>
								<path id="SVGID_4_" d="M12,100c-6.627,0-12-5.372-12-12l0,0V12C0,5.373,5.373,0,12,0l0,0h76c6.627,0,12,5.373,12,12l0,0v76
									c0,6.628-5.373,12-12,12l0,0H12z"/>
							</defs>
							<clipPath id="SVGID_7_">
								<use xlink:href="#SVGID_4_"  overflow="visible"/>
							</clipPath>
							<g id="g14" clip-path="url(#SVGID_7_)">
								<path id="path20" inkscape:connector-curvature="0" fill="#5D2510" d="M100,0H0v100h100V0z"/>
							</g>
						</g>
					</g>
				</g>
			</g>
		</g>
	</g>
</g>
<g id="g10_1_" transform="matrix(1.25,0,0,-1.25,0,125)">
	<g id="g12_2_">
		<g>
			<g>
				<g>
					<g>
						<path id="SVGID_5_" fill="#FEFEFE" d="M14.229,97.067c-6.238,0-11.296-5.057-11.296-11.296l0,0V14.23
							c0-6.239,5.058-11.297,11.296-11.297l0,0h71.542c6.237,0,11.295,5.058,11.295,11.297l0,0v71.542
							c0,6.238-5.058,11.296-11.295,11.296l0,0L14.229,97.067L14.229,97.067z"/>
					</g>
					<g>
						<g>
							<path id="SVGID_6_" fill="#FEFEFE" d="M14.229,97.067c-6.238,0-11.296-5.057-11.296-11.296l0,0V14.23
								c0-6.239,5.058-11.297,11.296-11.297l0,0h71.542c6.237,0,11.295,5.058,11.295,11.297l0,0v71.542
								c0,6.238-5.058,11.296-11.295,11.296l0,0L14.229,97.067L14.229,97.067z"/>
						</g>
						<g>
							<defs>
								<path id="SVGID_8_" d="M14.229,97.067c-6.238,0-11.296-5.057-11.296-11.296l0,0V14.23c0-6.239,5.058-11.297,11.296-11.297
									l0,0h71.542c6.237,0,11.295,5.058,11.295,11.297l0,0v71.542c0,6.238-5.058,11.296-11.295,11.296l0,0L14.229,97.067
									L14.229,97.067z"/>
							</defs>
							<clipPath id="SVGID_9_">
								<use xlink:href="#SVGID_8_"  overflow="visible"/>
							</clipPath>
							<g id="g14_1_" clip-path="url(#SVGID_9_)">
								<path id="path20_2_" inkscape:connector-curvature="0" fill="#FEFEFE" d="M97.066,2.933H2.933v94.134h94.133V2.933z"/>
							</g>
						</g>
					</g>
				</g>
			</g>
		</g>
	</g>
</g>
<g>
	<path fill="#5D2510" d="M12.555,12.149c1.757-0.559,3.893,0.838,3.818,2.735c0.142,1.334-0.846,2.599-2.094,2.977
		c-0.538,0.092-1.094,0.087-1.632,0.015c-1.021-0.225-1.837-1.086-2.079-2.089c-0.076-0.693-0.135-1.443,0.186-2.086
		C11.098,12.959,11.773,12.386,12.555,12.149z"/>
	<path fill="#5D2512" d="M110.877,13.206c1.162-0.251,2.464,0.147,3.152,1.151c1.051,1.415,0.488,3.676-1.119,4.414
		c-1.426,0.786-3.41,0.042-4.016-1.455c-0.281-0.588-0.237-1.262-0.184-1.892C108.915,14.347,109.827,13.474,110.877,13.206z"/>
	<path fill="#5D2511" d="M12.699,107.091c1.83-0.53,3.905,1.14,3.672,3.06c0.06,1.886-2.094,3.279-3.825,2.688
		c-0.935-0.288-1.723-1.05-1.969-2.006C10.031,109.282,11.117,107.457,12.699,107.091z"/>
	<path fill="#5D2511" d="M110.857,107.104c1.229-0.375,2.629,0.241,3.274,1.338c0.904,1.404,0.341,3.527-1.209,4.217
		c-1.575,0.842-3.761-0.107-4.187-1.848c-0.086-0.729-0.147-1.527,0.219-2.193C109.32,107.857,110.062,107.336,110.857,107.104z"/>
</g>
<g>
	<path id="Shape_8_" fill="#692E1A" d="M98.934,85.073h1.826v6.104h1.217v-6.104h1.827v-1.223h-4.87V85.073L98.934,85.073z"/>
	<path id="Shape_9_" fill="#692E1A" d="M108.662,83.851v3.054h-2.437v-3.054h-1.217v7.326h1.217v-3.052h2.437v3.052h1.216v-7.326
		H108.662z"/>
	<path id="Shape_23_" fill="#D54E27" d="M68.44,33.74h-3.607l-0.002,0.002l-1.312,1.316h4.922V33.74L68.44,33.74z"/>
	<rect id="Rectangle-path_3_" x="69.422" y="33.74" fill="#D54E27" width="2.291" height="1.317"/>
	<path fill="#EF3F23" d="M17.337,72.771h0.655v-1.972h-0.655V72.771L17.337,72.771z M15.37,72.771h0.656v-1.972H15.37V72.771
		L15.37,72.771z"/>
	<path fill="#FBB46C" d="M16.026,72.771H15.37v-1.972h0.656V72.771L16.026,72.771z M17.993,72.771h-0.655v-1.972h0.655V72.771
		L17.993,72.771z M19.304,72.771h0.655v-0.657h0.654v-0.657h0.657v-1.314h-2.624v-0.658h-0.653v-1.314h-0.656v-1.313h-1.311v1.313
		H15.37v1.314h-0.654v0.658h-2.621v1.314h0.655v0.657h0.656v0.657h0.655v1.314h-0.655v1.971H12.75v1.316h1.31v-0.657h0.656v-0.659
		h1.311v-0.657h1.311v0.657h1.31v0.659h0.657v0.657h1.31v-1.316h-0.654v-1.971h-0.655V72.771L19.304,72.771z"/>
	<rect id="Rectangle-path_4_" x="71.713" y="41.793" fill="#EF3F23" width="9.175" height="1.15"/>
	<path id="Shape_25_" fill="#9F9FA0" d="M75.154,40.643v0.575h-0.573v0.575h1.146v-1.15H75.154L75.154,40.643z"/>
	<path id="Shape_26_" fill="#9F9FA0" d="M77.447,41.218v-0.575h-0.573v1.15h1.147v-0.575H77.447L77.447,41.218z"/>
	<path id="Shape_27_" fill="#FBB46C" d="M74.581,40.067v-0.576h-0.575v-0.575H72.86v0.575h0.573v0.576h0.572v0.575h0.575v0.575
		h0.573v-1.15H74.581L74.581,40.067z"/>
	<path id="Shape_28_" fill="#FBB46C" d="M78.594,38.917v0.574h-0.572v0.576h-0.574v1.15h0.574v-0.575h0.572v-0.575h0.574v-0.576
		h0.572v-0.574H78.594L78.594,38.917z"/>
	<path id="Shape_29_" fill="#9F9FA0" d="M72.86,37.767v-0.575h-0.573v2.3h0.573v-0.574h0.573v-1.151L72.86,37.767L72.86,37.767z"/>
	<path id="Shape_30_" fill="#9F9FA0" d="M79.74,37.191v0.575h-0.572v1.151h0.572v0.573h0.574v-2.3H79.74L79.74,37.191z"/>
	<path id="Shape_31_" fill="#FBB46C" d="M74.581,35.465v0.575h-0.575v0.576h-0.572v0.575H72.86v0.575h1.146v-0.575h0.575v-0.575
		h0.573v-1.151H74.581L74.581,35.465z"/>
	<path id="Shape_32_" fill="#FBB46C" d="M79.168,37.191v-0.575h-0.574V36.04h-0.572v-0.575h-0.574v1.151h0.574v0.575h0.572v0.575
		h1.146v-0.575H79.168z"/>
	<path id="Shape_33_" fill="#9F9FA0" d="M74.581,34.891v0.574h0.573v0.575h0.572v-1.149H74.581z"/>
	<path id="Shape_34_" fill="#9F9FA0" d="M76.874,34.891v1.149h0.573v-0.575h0.574v-0.574H76.874z"/>
	<rect id="Rectangle-path_5_" x="71.713" y="33.74" fill="#EF3F23" width="9.175" height="1.15"/>
	<rect id="Rectangle-path_6_" x="71.713" y="81.975" fill="#010101" width="9.175" height="1.718"/>
	<path id="Shape_35_" fill="#010101" d="M80.315,82.55v8.053h-8.603v0.574h9.177V82.55H80.315L80.315,82.55z M79.741,89.451h-0.572
		v0.576h0.572V89.451L79.741,89.451z M79.741,83.124h-0.572v0.573h0.572V83.124L79.741,83.124z M76.301,89.451v0.576h1.147v-1.15
		h-0.572v0.573L76.301,89.451L76.301,89.451z M76.876,87.728h-0.574v0.574h1.148V87.15h1.147v-2.299h-0.575v1.725h-1.146V87.728
		L76.876,87.728z M75.728,84.852h1.148v-0.576h-1.721V86h-0.574v0.576h1.148v-1.725H75.728L75.728,84.852z M73.434,89.451H72.86
		v0.576h0.573V89.451L73.434,89.451z M73.434,83.124H72.86v0.573h0.573V83.124L73.434,83.124z"/>
	<path id="Shape_36_" fill="#FBB46C" d="M72.288,90.603h8.027V82.55h-8.027V90.603L72.288,90.603z M73.434,90.029H72.86v-0.576
		h0.573V90.029L73.434,90.029z M73.434,83.699H72.86v-0.574h0.573V83.699L73.434,83.699z M78.594,87.15h-1.146v1.151h-0.573v0.576
		h0.573v1.15h-1.146v-0.575h-0.573v-1.151h0.573v-0.574h-0.573v-1.151H74.58V86h-0.574v-1.725h0.574v-0.576h2.867v0.576h0.572v0.576
		h0.573L78.594,87.15L78.594,87.15L78.594,87.15z M79.741,90.029h-0.572v-0.576h0.572V90.029L79.741,90.029z M79.741,83.699h-0.572
		v-0.574h0.572V83.699L79.741,83.699z M76.301,86h0.573v-1.148h-1.146v1.725h0.573V86L76.301,86L76.301,86z"/>
	<path id="Shape_37_" fill="#D54E27" d="M72.288,82.55h8.027v-0.575h-8.027V82.55L72.288,82.55z M77.448,83.699h-2.867v0.576h-0.573
		V86h1.147v-1.725h1.721V86h-0.574v0.576h-0.572v1.151h1.146v-1.151h1.146v-2.301h-0.571v-0.576H77.448L77.448,83.699z
		 M75.728,89.451h1.146v-1.15h-1.146V89.451L75.728,89.451z M71.713,90.603h0.574V82.55h-0.574V90.603L71.713,90.603z"/>
	<rect id="Rectangle-path_7_" x="25.858" y="33.74" fill="#010101" width="9.175" height="1.718"/>
	<path id="Shape_38_" fill="#010101" d="M34.459,34.315v8.053h-8.601v0.576h9.175v-8.629H34.459L34.459,34.315z M33.887,41.218
		h-0.573v0.575h0.573V41.218L33.887,41.218z M33.887,34.891h-0.573v0.574h0.573V34.891L33.887,34.891z M30.445,41.218v0.575h1.147
		v-1.151H31.02v0.575L30.445,41.218L30.445,41.218L30.445,41.218z M31.02,39.491h-0.574v0.575h1.147v-1.151h1.147v-2.3h-0.573v1.725
		h-1.146L31.02,39.491L31.02,39.491L31.02,39.491z M29.872,36.616h1.147V36.04h-1.721v1.727h-0.575v0.574h1.146v-1.725H29.872z
		 M27.578,41.218h-0.573v0.575h0.573V41.218L27.578,41.218z M27.578,34.891h-0.573v0.574h0.573V34.891L27.578,34.891z"/>
	<path id="Shape_39_" fill="#FBB46C" d="M26.431,42.367h8.028v-8.054h-8.028V42.367L26.431,42.367z M27.578,41.793h-0.572v-0.575
		h0.572V41.793L27.578,41.793z M27.578,35.465h-0.572v-0.574h0.572V35.465L27.578,35.465z M32.739,38.916h-1.147v1.151h-0.573v0.575
		h0.573v1.151h-1.146v-0.575H29.87v-1.151h0.575v-0.575H29.87v-1.151h-1.146v-0.574H28.15V36.04h0.573v-0.574h2.867v0.574h0.574
		v0.576h0.573L32.739,38.916L32.739,38.916L32.739,38.916z M33.887,41.793h-0.573v-0.575h0.573V41.793L33.887,41.793z
		 M33.887,35.465h-0.573v-0.574h0.573V35.465L33.887,35.465z M30.445,37.765h0.574v-1.149h-1.147v1.725h0.574L30.445,37.765
		L30.445,37.765z"/>
	<path id="Shape_40_" fill="#D54E27" d="M26.431,34.315h8.028v-0.573h-8.028V34.315L26.431,34.315z M31.593,35.465h-2.867v0.574
		h-0.574v1.727h1.147v-1.727h1.721v1.727h-0.574v0.574h-0.573v1.151h1.147V38.34h1.146v-2.301h-0.573V35.465L31.593,35.465z
		 M29.872,41.218h1.147v-1.151h-1.147V41.218L29.872,41.218z M25.858,42.367h0.572v-8.054h-0.572V42.367L25.858,42.367z"/>
	<rect id="Rectangle-path_8_" x="80.895" y="87.75" fill="#D54E27" width="2.287" height="2.458"/>
	<rect id="Rectangle-path_9_" x="35.033" y="84.298" fill="#D54E27" width="2.472" height="2.463"/>
	<path id="Shape_41_" fill="#D54E27" d="M40.94,80.853h-4.79l-1.117,1.122v1.34h5.907V80.853L40.94,80.853z"/>
	<path id="Shape_42_" fill="#D54E27" d="M41.923,88.869l1.118-1.122h-1.118V88.869L41.923,88.869z"/>
	<path id="Shape_43_" fill="#D54E27" d="M35.033,87.747v2.462h5.553l0.354-0.356v-2.105H35.033z"/>
	<path id="Shape_44_" fill="#D54E27" d="M38.486,84.298v2.463h5.535l0.355-0.354v-2.108H38.486z"/>
	<path id="Shape_45_" fill="#D54E27" d="M41.923,80.853v2.462h5.534l0.356-0.356v-2.105H41.923L41.923,80.853z"/>
	<path id="Shape_46_" fill="#D54E27" d="M45.359,85.42l1.116-1.122h-1.116V85.42z"/>
	<path id="Shape_47_" fill="#D54E27" d="M37.505,79.494l-0.373,0.374h0.373V79.494z"/>
	<path id="Shape_48_" fill="#D54E27" d="M40.94,67.06h-5.91v0.001h0.003l2.459,2.467h3.448V67.06L40.94,67.06z"/>
	<path id="Shape_49_" fill="#D54E27" d="M44.377,79.868v-2.462h-4.791l-1.1,1.103v1.359H44.377L44.377,79.868z"/>
	<rect id="Rectangle-path_10_" x="41.923" y="73.96" fill="#D54E27" width="5.891" height="2.462"/>
	<rect id="Rectangle-path_11_" x="39.62" y="73.96" fill="#D54E27" width="1.32" height="2.462"/>
	<path id="Shape_50_" fill="#D54E27" d="M44.377,70.512h-5.891v0.014l1.134,1.138v1.311h4.757V70.512z"/>
	<rect id="Rectangle-path_12_" x="41.923" y="67.06" fill="#D54E27" width="5.891" height="2.469"/>
	<rect id="Rectangle-path_13_" x="45.359" y="77.406" fill="#D54E27" width="3.435" height="2.462"/>
	<rect id="Rectangle-path_14_" x="45.359" y="70.512" fill="#D54E27" width="3.435" height="2.462"/>
	<path id="Shape_51_" fill="#D54E27" d="M40.94,53.278h-1.343l-2.454,2.461h3.797V53.278L40.94,53.278z"/>
	<rect id="Rectangle-path_15_" x="38.486" y="63.619" fill="#D54E27" width="5.89" height="2.462"/>
	<path id="Shape_52_" fill="#D54E27" d="M41.923,62.634h2.459l-0.174-0.175l2.28-2.287h-4.565V62.634L41.923,62.634z"/>
	<rect id="Rectangle-path_16_" x="35.03" y="60.172" fill="#D54E27" width="5.91" height="2.462"/>
	<rect id="Rectangle-path_17_" x="38.486" y="56.724" fill="#D54E27" width="5.89" height="2.463"/>
	<rect id="Rectangle-path_18_" x="41.923" y="53.278" fill="#D54E27" width="5.891" height="2.461"/>
	<path id="Shape_53_" fill="#D54E27" d="M45.359,66.081h2.459l-2.454-2.462h-0.005V66.081L45.359,66.081z"/>
	<path id="Shape_54_" fill="#D54E27" d="M45.359,59.187h2.11l1.324-1.33v-1.133h-3.435V59.187z"/>
	<path id="Shape_55_" fill="#D54E27" d="M37.505,42.943h-2.472l2.447,2.456h0.024V42.943z"/>
	<rect id="Rectangle-path_19_" x="35.033" y="39.489" fill="#D54E27" width="5.907" height="2.463"/>
	<rect id="Rectangle-path_20_" x="39.62" y="49.831" fill="#D54E27" width="4.758" height="2.462"/>
	<rect id="Rectangle-path_21_" x="41.923" y="46.383" fill="#D54E27" width="5.891" height="2.463"/>
	<path id="Shape_56_" fill="#D54E27" d="M40.94,46.383h-2.478l1.157,1.162v1.301h1.32V46.383z"/>
	<rect id="Rectangle-path_22_" x="38.486" y="42.943" fill="#D54E27" width="5.89" height="2.456"/>
	<path id="Shape_57_" fill="#D54E27" d="M41.923,41.952h5.884l-2.455-2.463h-3.429V41.952L41.923,41.952z"/>
	<rect id="Rectangle-path_23_" x="45.359" y="49.831" fill="#D54E27" width="3.435" height="2.462"/>
	<path id="Shape_58_" fill="#D54E27" d="M45.359,42.943v2.456h3.435v-2.456H45.359z"/>
	<rect id="Rectangle-path_24_" x="35.033" y="36.042" fill="#D54E27" width="2.472" height="2.464"/>
	<path id="Shape_59_" fill="#D54E27" d="M38.486,38.506h5.884l-2.454-2.464h-3.43V38.506L38.486,38.506z"/>
	<path id="Shape_60_" fill="#D54E27" d="M39.62,33.74h-4.587v1.318h5.902L39.62,33.74z"/>
	<path id="Shape_61_" fill="#D54E27" d="M33.223,67.061h0.846H33.223z"/>
	<rect id="Rectangle-path_25_" x="25.858" y="63.619" fill="#D54E27" width="4.773" height="2.462"/>
	<rect id="Rectangle-path_26_" x="28.179" y="60.172" fill="#D54E27" width="5.89" height="2.462"/>
	<rect id="Rectangle-path_27_" x="25.858" y="60.172" fill="#D54E27" width="1.337" height="2.462"/>
	<rect id="Rectangle-path_28_" x="25.858" y="57.857" fill="#D54E27" width="4.773" height="1.33"/>
	<path fill="#D54E27" d="M36.161,56.724l-1.128,1.133H35.03h-3.417v1.33h3.417h2.475v-2.463H36.161z"/>
	<path fill="#D54E27" d="M31.613,63.619v2.462h3.417h2.475v-2.462H35.03H31.613z"/>
	<path fill="#010101" d="M35.033,91.177h4.587l0.966-0.968h-5.553V91.177z"/>
	<path fill="#010101" d="M48.794,49.831v-4.432h-3.435v-2.456h3.435l-0.988-0.991h-5.884v-2.463h3.429l-0.981-0.983h-5.884v-2.464
		h3.431l-0.982-0.984h-5.902v0.984h2.472v2.464h-2.472v0.983h5.908v2.463h-5.908v0.991h2.472v2.456h-0.024l0.981,0.984h2.479v2.462
		h-1.32v0.986h4.756v2.462h-4.756v0.962l-0.022,0.022h1.343v2.461h-3.798l-0.982,0.985h1.344v2.463h-2.475h-3.416v-1.33H30.63v1.33
		h-4.774v0.985h1.338v2.462h-1.338v0.984h4.774v2.463h-4.774v0.979h7.366h0.846h0.961v-0.001h5.911v2.468h-3.45l0.995,0.998v-0.014
		h5.891v2.463h-4.757v0.984h1.319v2.463h-1.319v0.951l-0.032,0.032h4.79v2.462h-5.89V78.51l-0.981,0.983v0.375h-0.373l-0.981,0.984
		h4.79v2.462h-5.907v0.984h2.472v2.462h-2.472v0.987h5.907v2.105l0.982-0.984v-1.122h1.118l0.98-0.986h-5.535v-2.462h5.89v2.108
		l0.983-0.986v-1.122h1.116l0.981-0.983h-5.534v-2.463h5.891v2.105l0.98-0.983v-1.122v-0.984h-3.435v-2.462h3.435v-4.433h-3.435
		v-2.462h3.435V67.06v-0.001l-0.977-0.979h-2.458v-2.463h0.004l-0.982-0.984h-2.459v-2.462h4.564l0.982-0.985h-2.109v-2.462h3.435
		v-3.447v-0.985h-3.435v-2.462h3.435V49.831L48.794,49.831z M38.486,45.399v-2.456h5.89v2.456H38.486L38.486,45.399z M35.03,60.172
		h5.91v2.462h-5.91V60.172L35.03,60.172z M28.179,62.634v-2.462h5.89v2.462H28.179L28.179,62.634z M37.505,66.081H35.03h-3.417
		v-2.462h3.417h2.475V66.081L37.505,66.081z M47.813,73.96v2.462h-5.891V73.96H47.813L47.813,73.96z M47.813,67.06v2.469h-5.891
		V67.06H47.813L47.813,67.06z M44.377,63.619v2.462h-5.891v-2.462H44.377L44.377,63.619z M44.377,59.187h-5.891v-2.463h5.891V59.187
		L44.377,59.187z M47.813,53.278v2.461h-5.891v-2.461H47.813L47.813,53.278z M41.923,48.846v-2.463h5.891v2.463H41.923
		L41.923,48.846z"/>
	<path id="Shape_64_" fill="none" d="M25.857,85.403v0.017h-3.436L25.857,85.403z"/>
	<rect id="Rectangle-path_29_" x="12.095" y="78.504" fill="#D54E27" width="2.473" height="2.469"/>
	<rect id="Rectangle-path_30_" x="15.55" y="78.504" fill="#D54E27" width="5.891" height="2.469"/>
	<rect id="Rectangle-path_31_" x="18.986" y="81.975" fill="#D54E27" width="5.892" height="2.445"/>
	<path id="Shape_65_" fill="#D54E27" d="M18.004,84.42h-3.472l-2.437-2.445h5.908V84.42z"/>
	<path id="Shape_66_" fill="#D54E27" d="M21.44,85.42v2.445h-3.473L15.55,85.44V85.42H21.44L21.44,85.42z"/>
	<path id="Shape_67_" fill="#D54E27" d="M24.876,88.869v2.308h-3.605l-2.284-2.29v-0.018H24.876L24.876,88.869z"/>
	<path id="Shape_68_" fill="#D54E27" d="M22.422,78.527l2.425,2.444h-2.425V78.527z"/>
	<rect id="Rectangle-path_32_" x="22.422" y="85.42" fill="#D54E27" width="3.436" height="2.445"/>
	<path id="Shape_69_" fill="#010101" d="M22.422,78.527v2.443h2.425l1.011,1.002v3.43l-3.436,0.017v2.446h3.436v3.311h-0.981v-2.309
		h-5.891v0.02l-1.019-1.021h3.473v-2.446h-5.891v0.021l-1.017-1.021h3.472v-2.446h-5.909h-0.001v-1.002h2.474v-2.469h-2.474v-1.13
		h9.175L22.422,78.527L22.422,78.527z M18.986,84.42h5.892v-2.445h-5.892V84.42L18.986,84.42z M15.55,78.504v2.469h5.891v-2.469
		H15.55L15.55,78.504z"/>
	<rect id="Rectangle-path_33_" x="80.891" y="81.975" fill="#D54E27" width="2.292" height="1.341"/>
	<path id="Shape_70_" fill="#D54E27" d="M91.037,83.315h4.575l1.337-1.341v-1.122h-5.912V83.315z"/>
	<path id="Shape_71_" fill="#D54E27" d="M84.164,87.747v2.462h4.574l1.317-1.322v-1.14H84.164z"/>
	<path id="Shape_72_" fill="#D54E27" d="M87.602,84.298v2.463h4.572l1.319-1.32v-1.143H87.602L87.602,84.298z"/>
	<path id="Shape_73_" fill="#D54E27" d="M90.056,83.315v-2.463h-5.752l-0.14,0.139v2.324H90.056L90.056,83.315z"/>
	<rect id="Rectangle-path_34_" x="94.474" y="77.384" fill="#D54E27" width="2.474" height="2.484"/>
	<rect id="Rectangle-path_35_" x="87.778" y="77.384" fill="#D54E27" width="5.714" height="2.484"/>
	<path id="Shape_74_" fill="#D54E27" d="M86.619,78.529l-1.334,1.339h1.334V78.529z"/>
	<path id="Shape_75_" fill="#D54E27" d="M86.619,86.761v-2.463h-3.436h-2.293v2.463h2.293H86.619z"/>
	<path fill="#D54E27" d="M94.506,74.77v1.652h2.443v-2.31h-2.443V74.77L94.506,74.77z"/>
	<path fill="#010101" d="M92.858,76.422h-1.821h-0.981h-2.283v0.951l-1.151,1.156v1.339h-1.336l-0.981,0.984h5.752v2.463h-5.892
		v-2.323l-0.979,0.982h-0.003v1.342h-2.292V84.3h2.292h3.437v2.463h-3.437h-2.292v0.986h2.292v2.462h-2.292v0.969h2.292h4.589
		l0.966-0.969h-4.573v-2.462h5.892v1.14l2.118-2.126h-4.572V84.3h5.893v1.142l2.119-2.125h-4.574v-2.463h5.912v-0.984h-2.476v-2.483
		h2.476v-0.963h-2.444L92.858,76.422L92.858,76.422L92.858,76.422z M93.493,79.868H87.78v-2.484h5.713V79.868L93.493,79.868z"/>
	<path id="Shape_77_" fill="#D54E27" d="M83.184,42.943L83.184,42.943h0.002l1.057,1.06v-1.06H83.184z"/>
	<path id="Shape_78_" fill="#D54E27" d="M87.602,38.506h4.921l-2.452-2.464h-2.469V38.506L87.602,38.506z"/>
	<rect id="Rectangle-path_36_" x="82.038" y="41.794" fill="#D54E27" width="0" height="2.299"/>
	<rect id="Rectangle-path_37_" x="83.261" y="39.489" fill="none" width="0" height="2.463"/>
	<path id="Shape_79_" fill="#D54E27" d="M84.242,41.952L84.242,41.952v-1.138h1.716h0.654v-0.657v-0.668h-2.37V41.952z"/>
	<path id="Shape_80_" fill="#D54E27" d="M89.088,35.059l-1.312-1.316l-0.004-0.003h-3.526v1.319H89.088L89.088,35.059z"/>
	<rect id="Rectangle-path_38_" x="80.891" y="39.489" fill="#D54E27" width="2.369" height="2.463"/>
	<path id="Shape_81_" fill="#D54E27" d="M86.619,38.506v-2.464h-3.436h-2.293v2.464h2.293H86.619z"/>
	<rect id="Rectangle-path_39_" x="80.891" y="33.739" fill="#D54E27" width="2.369" height="1.318"/>
	<path id="Shape_82_" fill="#010101" d="M84.242,42.943v-0.991v-2.463h2.37v-0.982h1.645h4.269l-0.003-0.001h-4.921v-2.464h2.469
		l-0.982-0.983h-4.842v-1.319h-0.985v1.319h-2.37v0.983h2.293h3.436v2.464h-3.436h-2.293v0.983h2.37v2.463h-2.37v0.991h2.293H84.242
		z"/>
	<rect id="Rectangle-path_40_" x="79.058" y="65.541" fill="#FFFFFF" width="2.299" height="2.308"/>
	<rect id="Rectangle-path_41_" x="81.356" y="63.232" fill="#FFFFFF" width="2.3" height="2.309"/>
	<rect id="Rectangle-path_42_" x="102.06" y="44.773" fill="#FFFFFF" width="2.301" height="2.308"/>
	<path fill="none" d="M104.359,42.466h-4.601v-2.309H88.257v2.309h-2.299v4.615h-2.302v6.922h4.601v2.307h-9.199v2.309h-2.3v2.308
		h-2.301v4.615h2.301v2.306h2.3v2.309h-2.3v4.614h2.3v-2.307h4.599v2.307h9.202v-2.307h6.9v-2.308h11.501V58.618h-2.298v4.614
		h-4.603V56.31h2.301v-2.307h2.302v-2.309h2.298V37.851h-6.9V42.466z"/>
	<path fill="#FFFFFF" d="M102.715,36.199v4.615h-1.309v-2.308H86.613v2.308h-2.371v4.616h-2.231v9.229H77.41v2.308h-2.299v2.307
		H72.81v7.918h2.302v9.229h5.59v-2.31h1.309v2.31h12.495v-2.31h6.9v-2.306h11.501V56.968h-4.601v-1.314h2.301v-2.307h2.3V36.199
		H102.715L102.715,36.199z M111.26,51.694h-2.298v2.309h-2.302v2.307h-2.301v6.923h4.603v-4.614h2.298v11.537h-11.5v2.308h-6.901
		v2.307h-9.2v-2.307h-4.601v2.307h-2.3v-4.614h2.3v-2.309h-2.3v-2.306h-2.301v-4.616h2.301v-2.308h2.3V56.31h9.2v-2.308h-4.6v-6.923
		h2.301v-4.615h2.299v-2.309H99.76v2.309h4.601v-4.615h6.9L111.26,51.694L111.26,51.694L111.26,51.694z"/>
	<path fill="#8C742D" d="M88.259,51.694h-2.301V47.08h-2.3v6.922h4.601V51.694L88.259,51.694z M102.06,49.388h-2.3v2.307h-2.302
		v2.308h6.901v2.31h2.302v-2.31h2.3v-2.308h-6.901V49.388L102.06,49.388z M88.259,51.694h4.6v-2.307h-2.3V47.08h2.3v-2.308h-6.9
		v2.308h2.301V51.694L88.259,51.694z M97.459,49.388h2.302v-4.614h-2.302V49.388L97.459,49.388z M108.961,63.232h-2.3v6.923h4.6
		V58.618h-2.3V63.232L108.961,63.232z M104.359,44.773v4.615h4.602v2.307h2.3v-6.922H104.359L104.359,44.773z M90.559,56.312H79.058
		v2.307h-2.3v2.308h2.3v2.307h9.201v2.309h2.3v-2.309h2.3v-4.614h-2.3V56.312L90.559,56.312z M99.76,56.312h-6.902v2.307h2.302
		v2.308h6.9v-2.308h-2.3V56.312L99.76,56.312z M83.658,65.541h-2.302v2.308h-2.299v2.307h-2.3v4.615h2.3v-2.307h4.601v-2.309h2.301
		v-2.307h-2.301V65.541L83.658,65.541L83.658,65.541z M102.06,58.618h2.301v-2.308h-2.301V58.618L102.06,58.618z"/>
	<path fill="#EF3F23" d="M99.76,42.466v-2.309H88.259v2.309h-2.301v2.308h20.703v-2.308H99.76L99.76,42.466z M104.359,65.541h-2.3
		v-2.309h2.3v-4.614h-2.3v2.308h-6.9v-2.308h-2.302v4.614h-2.301v2.309h-2.299v-2.309h-4.602v4.616h2.3v2.307h-2.3v4.615h9.201
		v-2.307h6.902v-2.309h6.901v-6.923h-2.302V65.541L104.359,65.541z M97.459,65.541h-2.3v-2.309h2.3V65.541L97.459,65.541z
		 M90.559,58.618h2.3v-2.308h-2.3V58.618L90.559,58.618z M99.76,58.618h2.3v-2.308h-2.3V58.618L99.76,58.618z"/>
	<path fill="#FBB46C" d="M104.359,47.081h-2.3v-2.308h-2.3v4.615h2.3v2.307h6.901v-2.307h-4.602V47.081L104.359,47.081z
		 M85.958,51.694h2.301V47.08h-2.301V51.694L85.958,51.694z M97.459,44.773h-4.601v2.308h-2.3v2.308h2.3v2.307h-4.6v4.616h16.101
		v-2.309h-6.901v-2.308h2.302v-2.307h-2.302L97.459,44.773L97.459,44.773z M104.359,37.851v4.615h2.302v2.308h4.6v-6.923H104.359
		L104.359,37.851z M79.058,60.926h-4.602v4.615h2.301v2.308h2.301v-2.308h2.299v-2.309h-2.299V60.926L79.058,60.926z M95.16,65.541
		h2.299v-2.309H95.16V65.541L95.16,65.541z M102.06,65.541h2.301v-2.309h-2.301V65.541L102.06,65.541z"/>
	<rect id="Rectangle-path_43_" x="70.173" y="91.167" fill="none" width="0" height="0.094"/>
	<rect id="Rectangle-path_44_" x="70.946" y="91.167" fill="#26AD4B" width="0.77" height="0.094"/>
	<rect id="Rectangle-path_45_" x="70.173" y="91.167" fill="#B6D439" width="0.773" height="0.094"/>
	<rect id="Rectangle-path_46_" x="25.859" y="81.975" fill="#D54E27" width="0.572" height="0.574"/>
	<rect id="Rectangle-path_47_" x="26.431" y="82.549" fill="#D54E27" width="0.574" height="0.575"/>
	<rect id="Rectangle-path_48_" x="27.006" y="83.124" fill="#D54E27" width="0.572" height="0.573"/>
	<rect id="Rectangle-path_49_" x="27.578" y="83.699" fill="#D54E27" width="0.574" height="0.576"/>
	<path id="Shape_85_" fill="#FBE2C4" d="M27.578,84.275v-0.576h-0.573v-0.575h-0.574v-0.575h-0.572v8.054h0.572v-0.576h0.574v-0.575
		h0.573v-0.573h0.573v-4.603H27.578L27.578,84.275z"/>
	<rect id="Rectangle-path_50_" x="28.152" y="84.275" fill="#D54E27" width="4.588" height="4.603"/>
	<path id="Shape_86_" fill="#FBE2C4" d="M26.431,81.975v0.574h0.574v0.575h0.573v0.575h0.573v0.576h4.588v-0.576h0.573v-0.575h0.573
		v-0.575h0.573v-0.574H26.431z"/>
	<path id="Shape_87_" fill="#010101" d="M33.886,90.603v-0.573h-0.573v-0.578h-0.573v-0.573h-5.161v0.573h-0.572v0.578h-0.575v0.573
		h-0.571v0.574h8.6v-0.574H33.886z"/>
	<rect id="Rectangle-path_51_" x="32.739" y="88.878" fill="#D54E27" width="0.573" height="0.573"/>
	<rect id="Rectangle-path_52_" x="33.312" y="89.451" fill="#D54E27" width="0.573" height="0.576"/>
	<rect id="Rectangle-path_53_" x="33.887" y="90.029" fill="#D54E27" width="0.572" height="0.573"/>
	<path id="Shape_88_" fill="#010101" d="M34.459,81.975v0.574h-0.573v0.575h-0.573v0.575h-0.573v5.179h0.573v0.573h0.573v0.575
		h0.573v0.576h0.574v-8.628H34.459L34.459,81.975z"/>
	<rect id="Rectangle-path_54_" x="34.459" y="90.603" fill="#D54E27" width="0.574" height="0.574"/>
	<path id="Shape_89_" fill="none" d="M17.455,45.231h0.765h-0.767v0.767h0.002V45.231L17.455,45.231z"/>
	<rect id="Rectangle-path_55_" x="17.072" y="45.614" fill="none" width="0" height="0.767"/>
	<polygon id="Rectangle-path_56_" fill="none" points="13.626,45.997 14.392,45.997 14.392,45.997 	"/>
	<polygon id="Rectangle-path_57_" fill="none" points="17.455,46.767 18.22,46.767 18.22,46.767 	"/>
	<polygon id="Rectangle-path_58_" fill="none" points="22.049,45.231 22.813,45.231 22.813,45.231 	"/>
	<polygon id="Rectangle-path_59_" fill="none" points="13.626,44.462 14.392,44.462 14.392,44.462 	"/>
	<polygon id="Rectangle-path_60_" fill="none" points="19.75,47.534 20.517,47.534 20.517,47.534 	"/>
	<rect id="Rectangle-path_61_" x="18.603" y="45.614" fill="none" width="0" height="0.767"/>
	<polygon id="Rectangle-path_62_" fill="none" points="20.517,46.767 21.282,46.767 21.282,46.767 	"/>
	<polygon id="Rectangle-path_63_" fill="none" points="18.985,46.767 19.75,46.767 19.75,46.767 	"/>
	<rect id="Rectangle-path_64_" x="21.664" y="45.613" fill="none" width="0" height="0.768"/>
	<rect id="Rectangle-path_65_" x="20.133" y="45.613" fill="none" width="0" height="0.768"/>
	<path id="Rectangle-path_66_" fill="none" d="M12.095,45.231L12.095,45.231L12.095,45.231z"/>
	<polygon id="Rectangle-path_67_" fill="none" points="17.472,37.55 24.344,37.55 24.344,37.55 	"/>
	<path id="Shape_90_" fill="none" d="M15.923,47.545v-0.778h0.767h-0.767v-1.536h0.767h-0.767v-6.128l0,0V47.545L15.923,47.545
		L15.923,47.545z"/>
	<polygon id="Rectangle-path_68_" fill="none" points="12.861,46.767 13.626,46.767 13.626,46.767 	"/>
	<polygon id="Rectangle-path_69_" fill="none" points="19.769,35.246 25.11,35.246 25.11,35.246 	"/>
	<path id="Rectangle-path_70_" fill="none" d="M12.095,46.767L12.095,46.767L12.095,46.767z"/>
	<rect id="Rectangle-path_71_" x="18.603" y="47.15" fill="none" width="0" height="0.767"/>
	<rect id="Rectangle-path_72_" x="17.072" y="47.151" fill="none" width="0" height="0.767"/>
	<rect id="Rectangle-path_73_" x="12.479" y="45.613" fill="none" width="0" height="0.768"/>
	<polygon id="Rectangle-path_74_" fill="none" points="20.517,45.231 21.282,45.231 21.282,45.231 	"/>
	<polygon id="Rectangle-path_75_" fill="none" points="12.096,44.462 12.861,44.462 12.861,44.462 	"/>
	<polygon id="Rectangle-path_76_" fill="none" points="18.985,45.231 19.75,45.231 19.75,45.231 	"/>
	<rect id="Rectangle-path_77_" x="13.244" y="44.846" fill="none" width="0" height="0.769"/>
	<rect id="Rectangle-path_78_" x="18.985" y="45.997" fill="#26AD4B" width="0.765" height="0.768"/>
	<rect id="Rectangle-path_79_" x="12.095" y="45.997" fill="#26AD4B" width="0" height="0.768"/>
	<path id="Shape_91_" fill="#26AD4B" d="M21.282,47.532l0.764-0.766h-0.764V47.532z"/>
	<rect id="Rectangle-path_80_" x="12.861" y="45.997" fill="#26AD4B" width="0.765" height="0.768"/>
	<path id="Shape_92_" fill="#26AD4B" d="M22.049,46.765l0.763-0.768h-0.763V46.765z"/>
	<rect id="Rectangle-path_81_" x="20.517" y="45.997" fill="#26AD4B" width="0.766" height="0.768"/>
	<rect id="Rectangle-path_82_" x="13.626" y="45.231" fill="#26AD4B" width="0.766" height="0.767"/>
	<path id="Shape_93_" fill="#26AD4B" d="M16.689,45.231v0.767h0.764v-0.767h0.767v0.767h0.766v-0.767h0.765v0.767h0.767v-0.767
		h0.766v0.767h0.767v-0.767h0.765v0.766l2.297-2.303v-8.447h-5.342l-0.766,0.768h5.341v1.536h-6.872l-1.549,1.553v6.128H16.689
		L16.689,45.231z"/>
	<path id="Shape_94_" fill="#26AD4B" d="M20.517,47.545h0.754l0.009-0.011h-0.763V47.545z"/>
	<rect id="Rectangle-path_83_" x="12.096" y="45.231" fill="#26AD4B" width="0.766" height="0.767"/>
	<rect id="Rectangle-path_84_" x="18.22" y="46.767" fill="#26AD4B" width="0.765" height="0.768"/>
	<path id="Shape_95_" fill="#26AD4B" d="M17.453,47.534L17.453,47.534h0.002v-0.768h-0.766v0.768H17.453z"/>
	<path id="Shape_96_" fill="#26AD4B" d="M12.096,44.462h0.766v0.769h0.765v-0.769h0.766V40.64l-2.297,2.304v2.287h0.001V44.462
		L12.096,44.462z"/>
	<rect id="Rectangle-path_85_" x="15.923" y="45.997" fill="#26AD4B" width="0.767" height="0.768"/>
	<path id="Rectangle-path_86_" fill="#26AD4B" d="M17.453,45.997L17.453,45.997L17.453,45.997z"/>
	<rect id="Rectangle-path_87_" x="15.923" y="47.534" fill="#26AD4B" width="0.767" height="0.094"/>
	<rect id="Rectangle-path_88_" x="17.455" y="47.534" fill="#26AD4B" width="0.765" height="0.094"/>
	<rect id="Rectangle-path_89_" x="18.985" y="47.534" fill="#26AD4B" width="0.765" height="0.094"/>
	<rect id="Rectangle-path_90_" x="17.455" y="45.997" fill="#26AD4B" width="0.765" height="0.768"/>
	<rect id="Rectangle-path_91_" x="19.75" y="46.767" fill="#26AD4B" width="0.767" height="0.768"/>
	<path id="Shape_97_" fill="#B6D439" d="M21.282,45.997v0.77h0.764l0.003-0.002v-0.768H21.282z"/>
	<path id="Shape_98_" fill="#B6D439" d="M13.626,45.997v0.77h-0.765v-0.77h-0.766v0.77h-0.001v0.778h2.297v-1.548H13.626z"/>
	<path id="Shape_99_" fill="#B6D439" d="M24.344,36.014h-5.341l-1.531,1.536h6.872V36.014L24.344,36.014z"/>
	<rect id="Rectangle-path_92_" x="19.75" y="45.997" fill="#B6D439" width="0.767" height="0.768"/>
	<rect id="Rectangle-path_93_" x="12.861" y="45.231" fill="#B6D439" width="0.765" height="0.767"/>
	<rect id="Rectangle-path_94_" x="13.626" y="44.462" fill="#B6D439" width="0.766" height="0.769"/>
	<path id="Shape_100_" fill="#B6D439" d="M18.22,47.534v-0.768h0.766v-0.77H18.22v-0.767h-0.765v0.767h0.765v0.77h-0.765v0.768
		H18.22v0.011h0.766v-0.011H18.22z"/>
	<path id="Shape_101_" fill="#B6D439" d="M25.11,43.693l0.747-0.75V33.74h-4.587l-1.502,1.506h5.342V43.693z"/>
	<path id="Shape_102_" fill="#B6D439" d="M22.049,45.231v0.767h0.763l0.002-0.001v-0.766H22.049L22.049,45.231z"/>
	<rect id="Rectangle-path_95_" x="18.985" y="46.767" fill="#B6D439" width="0.765" height="0.768"/>
	<rect id="Rectangle-path_96_" x="19.75" y="47.534" fill="#B6D439" width="0.767" height="0.094"/>
	<path id="Shape_103_" fill="#B6D439" d="M20.517,46.767v0.768h0.763l0.003-0.002v-0.766H20.517L20.517,46.767z"/>
	<rect id="Rectangle-path_97_" x="20.517" y="45.231" fill="#B6D439" width="0.766" height="0.767"/>
	<rect id="Rectangle-path_98_" x="18.985" y="45.231" fill="#B6D439" width="0.765" height="0.767"/>
	<rect id="Rectangle-path_99_" x="12.096" y="44.462" fill="#B6D439" width="0.766" height="0.769"/>
	<rect id="Rectangle-path_100_" x="15.923" y="45.231" fill="#B6D439" width="0.767" height="0.767"/>
	<rect id="Rectangle-path_101_" x="16.689" y="45.997" fill="#B6D439" width="0.764" height="0.768"/>
	<rect id="Rectangle-path_102_" x="15.923" y="46.767" fill="#B6D439" width="0.767" height="0.768"/>
	<rect id="Rectangle-path_103_" x="12.095" y="45.231" fill="#B6D439" width="0" height="0.767"/>
	<rect id="Rectangle-path_104_" x="16.689" y="47.534" fill="#B6D439" width="0.764" height="0.094"/>
	<path id="Shape_104_" fill="#010101" d="M15.923,39.103l-1.531,1.537v6.905h1.531V39.103z"/>
	<path id="Shape_105_" fill="#D54E27" d="M55.657,56.724h2.474v1.145h-2.473L55.657,56.724"/>
	<rect id="Rectangle-path_105_" x="55.657" y="53.278" fill="#D54E27" width="5.909" height="2.461"/>
	<rect id="Rectangle-path_106_" x="59.114" y="56.724" fill="#D54E27" width="5.714" height="1.145"/>
	<rect id="Rectangle-path_107_" x="62.55" y="53.278" fill="#D54E27" width="2.283" height="2.461"/>
	<rect id="Rectangle-path_108_" x="55.657" y="49.831" fill="#D54E27" width="2.473" height="2.462"/>
	<path id="Shape_106_" fill="#D54E27" d="M58.131,42.943h-2.473h-0.001v2.456h2.474V42.943L58.131,42.943z"/>
	<path id="Shape_107_" fill="#D54E27" d="M61.566,39.489H59.1l-2.453,2.463h4.92V39.489z"/>
	<rect id="Rectangle-path_109_" x="59.114" y="49.831" fill="#D54E27" width="5.714" height="2.462"/>
	<path id="Shape_108_" fill="#D54E27" d="M62.55,48.846h2.283v-1.301l1.156-1.162H62.55V48.846z"/>
	<rect id="Rectangle-path_110_" x="55.657" y="46.383" fill="#D54E27" width="5.909" height="2.463"/>
	<rect id="Rectangle-path_111_" x="59.114" y="42.943" fill="#D54E27" width="5.89" height="2.456"/>
	<rect id="Rectangle-path_112_" x="62.55" y="39.489" fill="#D54E27" width="5.891" height="2.463"/>
	<path id="Shape_109_" fill="#D54E27" d="M65.985,42.943v2.456h0.987l2.446-2.456h0.003H65.985z"/>
	<path id="Shape_110_" fill="#D54E27" d="M65.004,36.042h-2.468l-2.454,2.464h4.922V36.042z"/>
	<polygon id="Rectangle-path_113_" fill="#D54E27" points="69.422,42.943 71.713,42.943 71.713,42.943 	"/>
	<rect id="Rectangle-path_114_" x="69.422" y="39.489" fill="#D54E27" width="2.291" height="2.463"/>
	<rect id="Rectangle-path_115_" x="65.985" y="36.042" fill="#D54E27" width="5.729" height="2.464"/>
	<path id="Shape_111_" fill="#010101" d="M58.131,57.868h0.983v-1.145h5.714v1.145h0.006v-2.129h-2.283v-2.461h2.283v-4.433h-2.283
		v-2.462h3.44l0.982-0.984h-0.988v-2.456h5.729v-0.991h-2.292v-2.463h2.292v-0.983h-5.729v-2.464h5.729v-0.984h-2.292V33.74H68.44
		v1.317H63.52l-0.982,0.984h2.468v2.464h-4.922l-0.982,0.983h2.467v2.463h-4.921l-0.988,0.991h2.473v2.456h-2.473v0.984h5.909v2.462
		h-5.909v0.985h2.473v2.463h-2.473v0.985h5.909v2.461h-5.909v0.985h2.473V57.868L58.131,57.868z M62.55,39.489h5.891v2.463H62.55
		V39.489L62.55,39.489z M59.114,45.399v-2.456h5.89v2.456H59.114L59.114,45.399z M59.114,52.293v-2.462h5.714v2.462H59.114
		L59.114,52.293z"/>
	<rect id="Rectangle-path_116_" x="69.397" y="85.732" fill="none" width="0" height="0.777"/>
	<rect id="Rectangle-path_117_" x="69.397" y="84.178" fill="none" width="0" height="0.777"/>
	<rect id="Rectangle-path_118_" x="70.946" y="90.391" fill="none" width="0" height="0.776"/>
	<rect id="Rectangle-path_119_" x="69.397" y="87.284" fill="none" width="0" height="0.775"/>
	<rect id="Rectangle-path_120_" x="69.397" y="82.624" fill="none" width="0" height="0.778"/>
	<path id="Shape_112_" fill="none" d="M55.658,79.522L55.658,79.522h1.355v3.812v-3.812h6.193v10.024V79.522H55.658z"/>
	<rect id="Rectangle-path_121_" x="69.397" y="88.837" fill="none" width="0" height="0.778"/>
	<rect id="Rectangle-path_122_" x="69.397" y="90.391" fill="none" width="0" height="0.776"/>
	<rect id="Rectangle-path_123_" x="70.173" y="81.975" fill="none" width="0" height="0.649"/>
	<rect id="Rectangle-path_124_" x="70.946" y="85.732" fill="none" width="0" height="0.777"/>
	<rect id="Rectangle-path_125_" x="70.173" y="86.509" fill="none" width="0" height="0.775"/>
	<rect id="Rectangle-path_126_" x="70.173" y="89.615" fill="none" width="0" height="0.775"/>
	<rect id="Rectangle-path_127_" x="70.946" y="87.284" fill="none" width="0" height="0.775"/>
	<rect id="Rectangle-path_128_" x="70.173" y="88.06" fill="none" width="0" height="0.777"/>
	<rect id="Rectangle-path_129_" x="70.946" y="82.624" fill="none" width="0" height="0.778"/>
	<rect id="Rectangle-path_130_" x="70.946" y="84.178" fill="none" width="0" height="0.777"/>
	<rect id="Rectangle-path_131_" x="70.173" y="84.956" fill="none" width="0" height="0.775"/>
	<rect id="Rectangle-path_132_" x="70.946" y="88.837" fill="none" width="0" height="0.778"/>
	<rect id="Rectangle-path_133_" x="70.173" y="83.402" fill="none" width="0" height="0.775"/>
	<path id="Shape_113_" fill="none" d="M62.433,69.428L62.433,69.428l-0.001,8.538H60.11v-9.316v9.316h-4.452v0.002h9.77
		l-0.001-0.002h-2.994V69.428L62.433,69.428z"/>
	<rect id="Rectangle-path_134_" x="70.946" y="89.615" fill="#26AD4B" width="0.77" height="0.775"/>
	<rect id="Rectangle-path_135_" x="70.946" y="81.975" fill="#26AD4B" width="0.77" height="0.649"/>
	<path id="Shape_114_" fill="#26AD4B" d="M63.207,89.546l1.627,1.631h5.339v-0.01h-0.775v-0.776h0.775v-0.775h-0.775v-0.778h0.775
		V88.06h-0.775v-0.775h0.775v-0.775h-0.775v-0.777h0.775v-0.775h-0.775v-0.778h0.775v-0.776h-0.775v-0.777h0.775v-0.649h-0.751
		l-2.446-2.453h-3.769V89.546z"/>
	<path id="Shape_115_" fill="#26AD4B" d="M60.11,77.966h0.773v-8.538h1.549v8.538h2.994l-0.593-0.593v-8.724H60.11V77.966z"/>
	<rect id="Rectangle-path_136_" x="70.946" y="83.402" fill="#26AD4B" width="0.77" height="0.775"/>
	<rect id="Rectangle-path_137_" x="70.946" y="86.509" fill="#26AD4B" width="0.77" height="0.775"/>
	<rect id="Rectangle-path_138_" x="70.946" y="84.956" fill="#26AD4B" width="0.77" height="0.775"/>
	<rect id="Rectangle-path_139_" x="70.946" y="88.06" fill="#26AD4B" width="0.77" height="0.777"/>
	<rect id="Rectangle-path_140_" x="70.173" y="85.732" fill="#26AD4B" width="0.773" height="0.777"/>
	<path id="Shape_116_" fill="#26AD4B" d="M55.658,79.522v2.453l1.355,1.358v-3.812H55.658L55.658,79.522z"/>
	<rect id="Rectangle-path_141_" x="70.173" y="87.284" fill="#26AD4B" width="0.773" height="0.775"/>
	<path id="Shape_117_" fill="#26AD4B" d="M60.885,79.522v7.696l0.773,0.775v-8.472H60.885L60.885,79.522z"/>
	<rect id="Rectangle-path_142_" x="70.173" y="82.624" fill="#26AD4B" width="0.773" height="0.778"/>
	<rect id="Rectangle-path_143_" x="70.173" y="84.178" fill="#26AD4B" width="0.773" height="0.777"/>
	<rect id="Rectangle-path_144_" x="70.173" y="88.837" fill="#26AD4B" width="0.773" height="0.778"/>
	<rect id="Rectangle-path_145_" x="70.173" y="90.391" fill="#26AD4B" width="0.773" height="0.776"/>
	<rect id="Rectangle-path_146_" x="70.946" y="85.732" fill="#B6D439" width="0.77" height="0.777"/>
	<rect id="Rectangle-path_147_" x="70.173" y="84.956" fill="#B6D439" width="0.773" height="0.775"/>
	<rect id="Rectangle-path_148_" x="70.173" y="83.402" fill="#B6D439" width="0.773" height="0.775"/>
	<rect id="Rectangle-path_149_" x="70.173" y="86.509" fill="#B6D439" width="0.773" height="0.775"/>
	<rect id="Rectangle-path_150_" x="70.946" y="90.391" fill="#B6D439" width="0.77" height="0.776"/>
	<path id="Shape_118_" fill="#B6D439" d="M61.658,79.522v8.472l1.549,1.553V79.522H61.658L61.658,79.522z"/>
	<rect id="Rectangle-path_151_" x="70.173" y="89.615" fill="#B6D439" width="0.773" height="0.775"/>
	<rect id="Rectangle-path_152_" x="70.173" y="88.06" fill="#B6D439" width="0.773" height="0.777"/>
	<rect id="Rectangle-path_153_" x="70.946" y="88.837" fill="#B6D439" width="0.77" height="0.778"/>
	<rect id="Rectangle-path_154_" x="70.173" y="81.975" fill="#B6D439" width="0.773" height="0.649"/>
	<rect id="Rectangle-path_155_" x="60.884" y="69.428" fill="#B6D439" width="1.548" height="8.538"/>
	<path id="Shape_119_" fill="#B6D439" d="M55.658,77.966h4.452v-9.316h4.724v-0.794h-9.176V77.966L55.658,77.966z"/>
	<rect id="Rectangle-path_156_" x="70.946" y="82.624" fill="#B6D439" width="0.77" height="0.778"/>
	<rect id="Rectangle-path_157_" x="70.946" y="87.284" fill="#B6D439" width="0.77" height="0.775"/>
	<rect id="Rectangle-path_158_" x="70.946" y="84.178" fill="#B6D439" width="0.77" height="0.777"/>
	<rect id="Rectangle-path_159_" x="69.397" y="88.837" fill="#B6D439" width="0.775" height="0.778"/>
	<rect id="Rectangle-path_160_" x="69.397" y="90.391" fill="#B6D439" width="0.775" height="0.776"/>
	<rect id="Rectangle-path_161_" x="69.397" y="87.284" fill="#B6D439" width="0.775" height="0.775"/>
	<rect id="Rectangle-path_162_" x="69.397" y="82.624" fill="#B6D439" width="0.775" height="0.778"/>
	<path id="Shape_120_" fill="#B6D439" d="M57.014,79.522v3.812l3.871,3.885v-7.696H57.014z"/>
	<rect id="Rectangle-path_163_" x="69.397" y="85.732" fill="#B6D439" width="0.775" height="0.777"/>
	<rect id="Rectangle-path_164_" x="69.397" y="84.178" fill="#B6D439" width="0.775" height="0.777"/>
	<path id="Shape_121_" fill="#010101" d="M55.658,79.522h11.317l-1.548-1.554h-9.77V79.522L55.658,79.522z"/>
	<rect id="Rectangle-path_165_" x="69.422" y="81.973" fill="#010101" width="0" height="0.094"/>
	<rect id="Rectangle-path_166_" x="55.658" y="67.073" fill="#010101" width="9.176" height="0.782"/>
	<rect id="Rectangle-path_167_" x="55.66" y="57.87" fill="#D54E27" width="0.573" height="0.574"/>
	<rect id="Rectangle-path_168_" x="56.233" y="58.444" fill="#D54E27" width="0.573" height="0.575"/>
	<rect id="Rectangle-path_169_" x="56.807" y="59.021" fill="#D54E27" width="0.573" height="0.576"/>
	<rect id="Rectangle-path_170_" x="57.38" y="59.597" fill="#D54E27" width="0.573" height="0.574"/>
	<path id="Shape_122_" fill="#FBE2C4" d="M57.38,60.171v-0.574h-0.573v-0.576h-0.574v-0.576h-0.574v8.055h0.574v-0.575h0.574v-0.577
		h0.573v-0.574h0.573v-4.602H57.38z"/>
	<rect id="Rectangle-path_171_" x="57.953" y="60.171" fill="#D54E27" width="4.587" height="4.603"/>
	<path id="Shape_123_" fill="#FBE2C4" d="M56.232,57.87v0.574h0.574v0.576h0.573v0.576h0.573v0.574h4.587v-0.574h0.572v-0.576h0.575
		v-0.576h0.572V57.87H56.232z"/>
	<path id="Shape_124_" fill="#010101" d="M63.688,66.499v-0.574h-0.575v-0.578H62.54v-0.573h-5.16v0.573h-0.573v0.578h-0.574v0.574
		H55.66v0.574h8.602v-0.574H63.688L63.688,66.499z"/>
	<rect id="Rectangle-path_172_" x="62.54" y="64.773" fill="#D54E27" width="0.574" height="0.574"/>
	<rect id="Rectangle-path_173_" x="63.114" y="65.347" fill="#D54E27" width="0.573" height="0.577"/>
	<rect id="Rectangle-path_174_" x="63.688" y="65.925" fill="#D54E27" width="0.574" height="0.574"/>
	<path id="Shape_125_" fill="#010101" d="M64.262,57.87v0.574h-0.574v0.576h-0.575v0.576H62.54v5.176h0.572v0.574h0.575v0.577h0.574
		v0.575h0.572V57.87H64.262L64.262,57.87z"/>
	<rect id="Rectangle-path_175_" x="64.262" y="66.499" fill="#D54E27" width="0.572" height="0.574"/>
</g>
</svg>
