<?xml version="1.0" encoding="utf-8"?>
<!-- Generator: Adobe Illustrator 16.0.0, SVG Export Plug-In . SVG Version: 6.00 Build 0)  -->
<!DOCTYPE svg PUBLIC "-//W3C//DTD SVG 1.1//EN" "http://www.w3.org/Graphics/SVG/1.1/DTD/svg11.dtd">
<svg version="1.1"
	 id="svg2" xmlns:rdf="http://www.w3.org/1999/02/22-rdf-syntax-ns#" xmlns:svg="http://www.w3.org/2000/svg" xmlns:cc="http://creativecommons.org/ns#" xmlns:dc="http://purl.org/dc/elements/1.1/" xmlns:inkscape="http://www.inkscape.org/namespaces/inkscape"
	 xmlns="http://www.w3.org/2000/svg" xmlns:xlink="http://www.w3.org/1999/xlink" x="0px" y="0px" width="125px" height="125px"
	 viewBox="0 0 125 125" enable-background="new 0 0 125 125" xml:space="preserve">
<g>
	<g id="g10" transform="matrix(1.25,0,0,-1.25,0,125)">
		<g id="g12">
			<g>
				<defs>
					<path id="SVGID_1_" d="M12,100c-6.627,0-12-5.372-12-12l0,0V12C0,5.373,5.373,0,12,0l0,0h76c6.627,0,12,5.373,12,12l0,0v76
						c0,6.628-5.373,12-12,12l0,0H12z"/>
				</defs>
				<use xlink:href="#SVGID_1_"  overflow="visible" fill="#A8E4FA"/>
				<clipPath id="SVGID_2_">
					<use xlink:href="#SVGID_1_"  overflow="visible"/>
				</clipPath>
				<g id="g14" clip-path="url(#SVGID_2_)">
					<path id="path20" inkscape:connector-curvature="0" fill="#A8E4FA" d="M100,0H0v100h100V0z"/>
				</g>
			</g>
		</g>
	</g>
	<g id="g10_1_" transform="matrix(1.25,0,0,-1.25,0,125)">
		<g id="g12_1_">
			<g>
				<defs>
					<path id="SVGID_3_" d="M14.23,97.067c-6.238,0-11.296-5.057-11.296-11.296l0,0V14.23c0-6.237,5.058-11.295,11.296-11.295l0,0
						h71.541c6.238,0,11.296,5.058,11.296,11.295l0,0v71.541c0,6.239-5.058,11.296-11.296,11.296l0,0H14.23z"/>
				</defs>
				<use xlink:href="#SVGID_3_"  overflow="visible" fill="#04A2E7"/>
				<clipPath id="SVGID_4_">
					<use xlink:href="#SVGID_3_"  overflow="visible"/>
				</clipPath>
				<g id="g14_1_" clip-path="url(#SVGID_4_)">
					<path id="path20_1_" inkscape:connector-curvature="0" fill="#04A2E7" d="M97.067,2.934H2.934v94.133h94.133V2.934z"/>
				</g>
			</g>
		</g>
	</g>
	<g>
		<path fill="#FFFFFF" d="M52.553,59.225c-1.454,5.396-2.699,11.001-3.944,16.605c-0.623,2.49-1.66,4.773-3.32,6.018
			c-2.699,2.492-4.566,1.869-5.812,0c-2.906-3.941-3.528-13.698-5.812-17.02c-0.832-1.246-1.661-1.66-3.113-0.83
			c-0.416,0.416-0.832,1.038-1.247,1.66c-2.075,3.945-1.868,13.076-5.188,16.398c-1.037,1.037-2.283,1.453-3.943,1.246
			c-1.246-0.209-2.906-1.662-3.322-2.699c-1.244-2.283-7.264-25.737-6.848-28.852c0.622-3.113,2.074-3.528,3.32-2.697
			c1.66,0.83,3.32,3.32,3.736,4.981c0.83,3.113,0.83,6.228,2.075,8.925c0.622,1.661,2.698,3.114,4.151,1.038
			c1.867-2.699,2.076-7.887,3.321-11.831c0.415-1.245,0.829-2.283,1.452-3.113c0.831-1.038,1.867-1.661,3.321-1.869
			c2.284-0.207,3.735,0.831,4.567,2.699c2.074,3.736,2.074,10.379,3.528,13.698c1.038,2.076,2.283,2.284,3.319,1.454
			c1.246-0.831,2.077-2.699,2.492-4.359c0.83-3.736,1.037-8.094,2.906-10.586c1.037-1.245,2.49-1.452,3.735-1.037
			c0.83,0.416,1.661,1.452,1.868,2.697C54.007,54.242,53.175,57.148,52.553,59.225"/>
		<path fill="#FFFFFF" d="M59.402,51.336c-1.038-0.208-2.283-0.622-2.491-1.66c-0.83-2.699,1.246-3.737,3.114-3.321
			c2.075,0.207,3.735,1.661,2.697,3.944C62.101,51.129,60.854,51.544,59.402,51.336 M60.439,83.094
			c-1.245,0.209-2.075-0.83-2.697-2.697c-1.245-4.359-1.245-12.869-0.209-18.266c0.416-2.699,1.038-4.774,1.869-4.774
			c1.245-0.208,2.491,1.038,2.698,1.868c0.831,2.283,0.831,19.717,0,22.002C61.894,81.641,60.854,83.094,60.439,83.094"/>
		<path fill="#FFFFFF" d="M73.516,72.717c-4.151,0.621-6.849-1.039-7.057-2.699c0-1.246,1.038-2.49,3.736-2.906
			c6.02-0.623,9.963,0.831,9.963,2.492C79.95,70.641,78.082,71.885,73.516,72.717"/>
		<path fill="#FFFFFF" d="M103.82,52.583c-2.905,1.037-6.435,0.415-8.925,1.037c-1.453,0.416-2.699,1.247-3.113,3.321
			c-0.415,2.699,1.037,4.567,2.49,5.189c2.698,1.245,8.926,0,9.548,3.114c0.207,1.244-0.622,2.698-1.245,2.905
			c-1.66,1.245-4.151,0.622-6.228,1.038c-2.49,0.623-3.735,1.867-4.151,3.32c-0.829,2.283-0.829,5.189-2.074,8.096
			c-0.207,0.414-1.245,1.66-1.868,1.867c-1.454,0.416-2.699-0.623-3.114-1.453c-1.245-1.867-1.661-9.34-1.452-16.604
			c0.207-6.851,0.829-13.285,1.867-14.944c1.245-1.662,4.151-2.699,6.851-2.907c3.113-0.207,9.548-0.415,12.038,0.831
			c1.453,0.623,1.868,1.661,1.66,2.906C105.688,51.336,105.065,52.375,103.82,52.583"/>
		<path fill="#FFFFFF" d="M111.5,51.336c-1.038-0.208-2.283-0.622-2.698-1.66c-0.623-2.699,1.453-3.737,3.321-3.321
			c1.868,0.207,3.735,1.661,2.49,3.944C114.199,51.129,112.954,51.544,111.5,51.336 M112.538,83.094
			c-1.245,0.209-2.076-0.83-2.698-2.697c-1.245-4.359-1.245-12.869-0.207-18.266c0.415-2.699,1.038-4.774,1.867-4.774
			c1.246-0.208,2.284,1.038,2.699,1.868c0.83,2.283,0.83,19.717,0,22.002C113.991,81.641,112.954,83.094,112.538,83.094"/>
		<path fill="#FFFFFF" d="M31.381,36.185c-0.415,0-0.622-0.416-0.622-0.831c-0.623-1.868-0.416-5.812-1.868-7.264
			c-0.208-0.207-0.622-0.416-1.245-0.207c-0.623,0-1.038,0.414-1.246,0.623c-1.037,1.661-0.83,4.773-1.246,6.435
			c-0.207,0.414-0.414,0.83-0.622,1.038c-0.83,0.207-1.245-0.416-1.452-1.038c-0.832-2.284-0.832-7.68,0.829-8.718
			c0.831-0.623,3.528-1.038,4.774-1.038c1.244,0,2.491,0.623,2.906,1.246c0.83,0.831,1.66,5.604,1.244,8.095
			C32.626,35.147,32.211,36.185,31.381,36.185"/>
		<path fill="#FFFFFF" d="M35.948,22.486c-0.623,0-1.039-0.208-1.246-0.624c-0.415-1.245,0.623-1.66,1.453-1.452
			c0.829,0,1.66,0.623,1.037,1.661C36.984,22.486,36.362,22.693,35.948,22.486 M36.155,36.808c-0.416,0-0.83-0.416-1.039-1.245
			c-0.622-1.869-0.622-5.812-0.207-8.095c0.207-1.246,0.623-2.076,0.83-2.284c0.623,0,1.038,0.416,1.245,0.831
			c0.416,1.037,0.416,8.925,0,9.963C36.984,36.185,36.362,36.808,36.155,36.808"/>
		<path fill="#FFFFFF" d="M47.57,36.185c-0.414,0-0.622-0.416-0.829-0.831c-0.416-1.868-0.207-5.812-1.661-7.264
			c-0.415-0.207-0.83-0.416-1.245-0.207c-0.623,0-1.039,0.414-1.246,0.623c-1.037,1.661-0.829,4.773-1.244,6.435
			c-0.207,0.414-0.416,0.83-0.83,1.038c-0.831,0.207-1.038-0.416-1.246-1.038c-0.83-2.284-0.83-7.68,0.622-8.718
			c1.038-0.623,3.737-1.038,4.982-1.038s2.283,0.623,2.905,1.246c0.623,0.831,1.661,5.604,1.039,8.095
			C48.817,35.147,48.194,36.185,47.57,36.185"/>
		<path fill="#FFFFFF" d="M54.007,28.505c-0.209,1.452-0.209,3.943,0,5.396c0,0.83,0.621,1.452,1.036,2.076
			c0,0.207,0.208,0.621,0,1.037c0,0.208-0.622,0.623-0.829,0.623c-0.623,0-1.246,0-1.661-0.414
			c-0.415-0.416-0.623-1.038-0.831-2.076c-0.207-1.868,0.208-4.567,0-6.228c0-0.623-0.207-1.037-0.414-1.452
			c-0.416-0.623-1.868-0.83-1.868-2.076c0-0.623,1.245-0.415,1.868-1.246c0.622-0.83,0.414-2.075,1.452-2.075
			c0.831,0,1.038,1.452,1.661,2.49c0.207,0.416,0.622,0.416,0.83,1.038C55.251,26.845,54.214,27.467,54.007,28.505"/>
		<path fill="#FFFFFF" d="M62.101,27.26c-1.246,0-2.075,1.037-2.283,1.66c-0.208,1.454,0.83,2.076,2.698,1.661
			c0.83-0.207,1.661-1.038,1.661-1.661C64.177,27.883,63.139,27.052,62.101,27.26 M67.082,30.789
			c-0.415,0.623-1.038,0.83-1.66,1.037c-1.661,0.208-3.944-0.208-4.567,0.831c-0.415,0.415-0.415,1.037-0.207,1.661
			c0.415,0.83,2.284,0.623,3.529,0.623c0.622,0,1.036,0,1.245,0.414c0.207,0.208,0.207,0.416-0.209,1.038
			c-0.207,0.416-1.245,1.038-1.867,1.245c-2.283,0.416-3.943-0.623-5.188-1.659c-0.831-1.038-1.453-2.285-1.66-3.53
			c-0.209-1.453,0.207-3.113,0.829-4.565c0.831-1.661,2.283-2.906,4.151-3.115c1.245-0.207,2.49,0.208,3.321,0.623
			c1.038,0.624,2.075,1.869,2.283,2.906C67.497,29.542,67.29,30.373,67.082,30.789"/>
		<path fill="#FFFFFF" d="M62.932,94.924c-1.247,0-2.077,0.832-2.077,1.662c-0.207,1.453,0.83,1.869,2.699,1.453
			c0.623,0,1.452-0.832,1.452-1.66C65.006,95.549,63.968,94.717,62.932,94.924 M67.705,98.455c-0.415,0.414-0.831,0.621-1.661,0.828
			c-1.453,0.207-3.528-0.207-4.359,0.83c-0.207,0.416-0.207,1.039,0,1.455c0.416,1.037,2.076,0.621,3.321,0.621
			c0.623,0,1.038,0.207,1.245,0.416c0,0.207,0,0.414-0.207,1.037c-0.207,0.416-1.245,0.83-1.867,1.037
			c-2.076,0.623-3.737-0.414-4.774-1.451c-0.831-1.039-1.453-2.076-1.66-3.322c-0.209-1.451,0-3.113,0.829-4.357
			c0.623-1.662,2.076-2.699,3.737-2.906c1.452-0.209,2.49,0.207,3.32,0.623c0.83,0.414,1.868,1.658,2.076,2.697
			C68.12,97.207,67.912,97.832,67.705,98.455"/>
		<path fill="#FFFFFF" d="M77.46,36.185c-0.414,0-0.623-0.416-0.83-0.831c-0.415-1.868-0.207-5.812-1.66-7.264
			c-0.207-0.207-0.83-0.416-1.246-0.207c-0.622,0-1.038,0.414-1.245,0.623c-1.038,1.661-0.831,4.773-1.245,6.435
			c-0.208,0.414-0.415,0.83-0.831,1.038c-0.829,0.207-1.038-0.416-1.245-1.038c-0.83-2.284-0.83-7.68,0.623-8.718
			c1.038-0.623,3.735-1.038,4.982-1.038c1.245,0,2.283,0.623,2.905,1.246c0.623,0.831,1.659,5.604,1.037,8.095
			C78.705,35.147,78.082,36.185,77.46,36.185"/>
		<path fill="#FFFFFF" d="M85.555,27.467c-1.452,0-2.283,2.075-2.283,3.944c0,2.075,1.038,4.358,3.113,3.736
			c1.245-0.416,1.869-2.076,1.869-3.944C88.254,29.335,87.423,27.26,85.555,27.467 M90.537,35.978
			c-0.415,0.83-1.453,1.245-2.491,1.452c-1.246,0.207-3.113,0.415-4.358,0c-2.283-1.038-3.321-3.737-3.321-6.435
			c0.208-2.076,0.83-4.151,2.49-5.396c1.038-0.831,3.114-0.416,4.359-1.245c0.83-0.416,0.83-4.359,2.283-4.359
			c1.245,0,1.038,2.492,1.245,2.906c0.623,0.831,0.623,4.982,0.623,8.511C91.16,33.486,90.951,35.354,90.537,35.978"/>
		<path fill="#FFFFFF" d="M98.216,27.052c-1.452,0.416-2.282,2.283-2.49,4.151c0,2.076,0.831,4.151,2.905,4.151
			c1.661-0.207,2.491-2.283,2.699-4.151C101.33,28.919,100.292,26.845,98.216,27.052 M99.669,37.637
			c-4.773,0.831-6.85-3.113-6.642-6.849c0.208-2.906,1.868-5.812,4.774-6.021c4.358-0.623,6.435,3.115,6.226,6.85
			C103.82,34.524,102.367,37.223,99.669,37.637"/>
		<path fill="#FFFFFF" d="M21.833,104.266c-0.622,0.414-2.076,0.83-3.528,0.621c-1.868-0.414-3.114-1.867-3.737-3.941
			C14.153,99.076,14.36,97,15.19,95.34c0.831-1.66,2.076-2.697,3.944-2.906c1.038-0.207,2.076,0.209,2.698,0.625
			c1.039,0.828,1.246,2.697-0.622,2.281c-1.661-0.207-2.699-0.416-3.528,1.246c-0.416,0.83-0.623,2.283-0.416,3.32
			c0,1.246,0.623,2.283,1.66,2.49c1.246,0.209,1.869-0.828,3.113-0.621C23.286,101.982,22.456,103.643,21.833,104.266"/>
		<path fill="#FFFFFF" d="M28.476,94.924c-1.246,0.209-2.076,1.869-2.076,3.738c-0.207,2.074,0.623,4.15,2.698,3.943
			c1.454-0.209,2.283-2.076,2.491-3.943C31.589,96.586,30.759,94.51,28.476,94.924 M29.927,104.887
			c-4.357,0.832-6.433-2.904-6.226-6.432c0.207-2.906,1.661-5.605,4.358-6.021c4.359-0.414,6.228,3.115,6.021,6.643
			C34.08,101.775,32.626,104.473,29.927,104.887"/>
		<path fill="#FFFFFF" d="M43.835,103.436c-0.416,0-0.623-0.416-0.83-0.83c-0.416-1.869-0.209-5.605-1.453-6.85
			c-0.414-0.207-0.83-0.416-1.453-0.207c-0.415,0-0.83,0.207-1.037,0.623c-1.039,1.451-0.83,4.564-1.246,6.225
			c-0.207,0.416-0.207,0.623-0.623,0.832c-0.83,0.414-1.037-0.416-1.244-1.039c-0.832-2.076-0.832-7.266,0.622-8.303
			c0.83-0.621,3.32-0.828,4.774-1.037c1.037,0,2.074,0.623,2.697,1.244c0.623,0.83,1.453,5.396,1.038,7.682
			C44.873,102.396,44.457,103.436,43.835,103.436"/>
		<path fill="#FFFFFF" d="M54.836,103.436c-0.208,0-0.415-0.416-0.622-0.83c-0.416-1.869-0.207-5.605-1.661-6.85
			c-0.207-0.207-0.623-0.416-1.245-0.207c-0.416,0-0.831,0.207-1.039,0.623c-1.037,1.451-0.829,4.564-1.244,6.225
			c-0.207,0.416-0.416,0.623-0.623,0.832c-0.831,0.414-1.245-0.416-1.453-1.039c-0.623-2.076-0.623-7.266,0.83-8.303
			c0.83-0.621,3.32-0.828,4.567-1.037c1.245,0,2.282,0.623,2.905,1.244c0.623,0.83,1.453,5.396,1.037,7.682
			C56.081,102.396,55.666,103.436,54.836,103.436"/>
		<path fill="#FFFFFF" d="M76.63,104.266c-0.622,0.414-2.076,0.83-3.528,0.621c-1.868-0.414-3.113-1.867-3.737-3.941
			C68.95,99.076,69.157,97,69.988,95.34c0.83-1.66,2.075-2.697,3.943-2.906c1.038-0.207,2.076,0.209,2.698,0.625
			c1.038,0.828,1.245,2.697-0.622,2.281c-1.661-0.207-2.699-0.416-3.529,1.246c-0.415,0.83-0.622,2.283-0.622,3.32
			c0.207,1.246,0.829,2.283,1.867,2.49c1.246,0.209,1.868-0.828,3.113-0.621S77.253,103.643,76.63,104.266"/>
		<path fill="#FFFFFF" d="M86.8,90.566c-0.622-0.207-1.037-0.416-1.245-0.83c-0.207-1.037,0.623-1.453,1.453-1.453
			c0.831,0.207,1.66,0.83,1.038,1.66C87.839,90.359,87.216,90.566,86.8,90.566 M87.216,104.059c-0.623,0-0.831-0.416-1.245-1.246
			c-0.416-1.867-0.416-5.396,0-7.68c0.207-1.246,0.414-2.074,0.829-2.074c0.416,0,0.83,0.414,1.039,0.828
			c0.415,0.83,0.415,8.303,0,9.342C87.839,103.436,87.216,103.852,87.216,104.059"/>
		<path fill="#FFFFFF" d="M94.48,94.924c-1.245,0.209-2.075,1.869-2.075,3.738c-0.209,2.074,0.622,4.15,2.697,3.943
			c1.454-0.209,2.283-2.076,2.492-3.943C97.595,96.586,96.764,94.51,94.48,94.924 M95.934,104.887
			c-4.359,0.832-6.435-2.904-6.228-6.432c0.209-2.906,1.661-5.605,4.359-6.021c4.358-0.414,6.227,3.115,6.02,6.643
			C100.085,101.775,98.631,104.473,95.934,104.887"/>
		<path fill="#FFFFFF" d="M109.84,103.436c-0.207,0-0.416-0.416-0.623-0.83c-0.415-1.869-0.207-5.605-1.66-6.85
			c-0.207-0.207-0.623-0.416-1.245-0.207c-0.415,0-0.83,0.207-1.039,0.623c-1.036,1.451-0.829,4.564-1.245,6.225
			c-0.207,0.416-0.414,0.623-0.622,0.832c-0.83,0.414-1.245-0.416-1.452-1.039c-0.623-2.076-0.623-7.266,0.829-8.303
			c0.831-0.621,3.321-0.828,4.567-1.037c1.245,0,2.283,0.623,2.905,1.244c0.623,0.83,1.453,5.396,1.038,7.682
			C111.086,102.396,110.671,103.436,109.84,103.436"/>
		<path fill="#FFFFFF" d="M82.649,96.172c-0.207,1.451-0.207,3.734,0,5.188c0.207,0.83,0.829,1.246,1.038,1.869
			c0,0.414,0.207,0.623,0,1.037c0,0.207-0.623,0.621-0.831,0.621c-0.623,0-1.037-0.207-1.452-0.414
			c-0.416-0.414-0.623-1.037-0.83-1.867c-0.208-1.869,0.207-4.359,0-6.02c0-0.623-0.208-1.037-0.416-1.453
			c-0.208-0.623-1.66-0.83-1.66-1.867c0-0.623,1.038-0.416,1.66-1.246c0.623-0.83,0.416-2.076,1.453-2.076
			c0.831,0,1.038,1.453,1.453,2.49c0.414,0.416,0.83,0.416,0.83,1.039C84.103,94.717,82.856,95.133,82.649,96.172"/>
	</g>
</g>
</svg>
